<svg xmlns="http://www.w3.org/2000/svg" width="688.548" height="241.761" viewBox="0 0 688.548 241.761">
  <g id="グループ_3445" data-name="グループ 3445" transform="translate(-107.468 -269.94)">
    <path id="パス_1662" data-name="パス 1662" d="M6.468,0V-104.664H20.874L43.512-41.6h.294v-63.063H58.8V0H44.688L21.756-62.916h-.294V0ZM72.324,0V-104.664h44.688v14.112H87.318v30.723H113.19v14.112H87.318v30.723h29.694V0ZM204.477-104.664,188.895,0H174.783L163.317-67.914h-.294L151.7,0H137.592L122.01-104.664h15.876l7.5,66.444h.294l11.76-66.444H168.9L181.1-36.6h.294l7.2-68.061Zm35.868,24.7A26.742,26.742,0,0,1,242.55-91.14a23.608,23.608,0,0,1,5.88-8.085,24.859,24.859,0,0,1,8.011-4.7,26.478,26.478,0,0,1,9.04-1.617,26.479,26.479,0,0,1,9.041,1.617,26.647,26.647,0,0,1,8.158,4.7,24.614,24.614,0,0,1,5.733,8.085,26.742,26.742,0,0,1,2.205,11.172v5.292H275.625v-5.292q0-5.439-3.013-8.011a10.629,10.629,0,0,0-7.13-2.573,10.629,10.629,0,0,0-7.129,2.573q-3.014,2.573-3.014,8.011V-24.7q0,5.439,3.014,8.011a10.629,10.629,0,0,0,7.129,2.572,10.629,10.629,0,0,0,7.13-2.572q3.014-2.573,3.013-8.011v-19.7H263.718v-13.23h26.9V-24.7a26.5,26.5,0,0,1-2.205,11.319,23.351,23.351,0,0,1-5.733,7.791,25.207,25.207,0,0,1-8.158,4.851A26.478,26.478,0,0,1,265.482.882a26.478,26.478,0,0,1-9.04-1.617,23.587,23.587,0,0,1-8.011-4.851,22.442,22.442,0,0,1-5.88-7.791A26.5,26.5,0,0,1,240.345-24.7Zm78.5-10.584v32.634h8.526a15.087,15.087,0,0,0,6.321-1.1,8.591,8.591,0,0,0,3.675-3.161,14.367,14.367,0,0,0,1.617-5.072,48.763,48.763,0,0,0,.441-6.982,48.763,48.763,0,0,0-.441-6.982,13.973,13.973,0,0,0-1.764-5.218q-2.793-4.116-10.584-4.116ZM303.849,0V-104.664h24.108q26.46,0,26.46,30.723a38.719,38.719,0,0,1-2.866,15.729,22.228,22.228,0,0,1-10.07,10.437L357.651,0H341.775L327.81-44.688h-8.967V0Zm92.9-36.6L389.4-74.529h-.294L381.759-36.6ZM359.709,0l23.373-104.664h12.5L418.95,0H403.956l-4.41-22.491H379.113L374.7,0ZM426.3,0V-104.664h22.2q12.936,0,19.625,7.056t6.689,19.992v48.951q0,14.7-7.13,21.682T447.174,0Zm14.994-90.552v76.44H448.2q6.321,0,8.967-3.16t2.646-9.923V-77.616q0-6.174-2.5-9.555T448.2-90.552Zm96.138-14.112V-23.52a24.054,24.054,0,0,1-1.838,9.481,24.151,24.151,0,0,1-5.219,7.717,24.944,24.944,0,0,1-7.791,5.292A23.405,23.405,0,0,1,513.177.882a22.888,22.888,0,0,1-9.335-1.911,25.2,25.2,0,0,1-7.717-5.292,25.2,25.2,0,0,1-5.292-7.717,23.251,23.251,0,0,1-1.911-9.481v-81.144h14.994V-24.99q0,5.586,2.646,8.232a8.975,8.975,0,0,0,6.615,2.646,8.975,8.975,0,0,0,6.615-2.646q2.646-2.646,2.646-8.232v-79.674ZM580.062-36.6l-7.35-37.926h-.294L565.068-36.6ZM543.018,0l23.373-104.664h12.495L602.259,0H587.265l-4.41-22.491H562.422L558.012,0Zm68.355,0V-90.552H594.027v-14.112h49.686v14.112H626.367V0Zm38.955,0V-104.664h44.688v14.112H665.322v30.723h25.872v14.112H665.322v30.723h29.694V0Z" transform="translate(101 375.486)" fill="#fff" opacity="0.8"/>
    <path id="パス_1663" data-name="パス 1663" d="M21.15-86.856v31.3h8.178a14.471,14.471,0,0,0,6.063-1.057,8.24,8.24,0,0,0,3.525-3.032,13.782,13.782,0,0,0,1.551-4.864,46.774,46.774,0,0,0,.423-6.7,46.774,46.774,0,0,0-.423-6.7,13.4,13.4,0,0,0-1.692-5.005Q36.1-86.856,28.623-86.856ZM6.768,0V-100.392H29.892q25.38,0,25.38,29.469a37.138,37.138,0,0,1-2.75,15.087,21.321,21.321,0,0,1-9.659,10.011L58.374,0H43.146l-13.4-42.864h-8.6V0ZM66.834,0V-100.392H109.7v13.536H81.216v29.469h24.816v13.536H81.216v29.469H109.7V0Zm97.854-28.623v6.2a22.354,22.354,0,0,1-1.762,8.812,24.378,24.378,0,0,1-4.865,7.4A23.452,23.452,0,0,1,150.8-1.058a21.258,21.258,0,0,1-8.954,1.9,32.2,32.2,0,0,1-8.319-1.128,19.681,19.681,0,0,1-7.614-3.948,21.832,21.832,0,0,1-5.57-7.261,25.708,25.708,0,0,1-2.186-11.351V-78.114a24.451,24.451,0,0,1,1.692-9.165,21.57,21.57,0,0,1,4.794-7.332,22.286,22.286,0,0,1,7.4-4.865,24.872,24.872,0,0,1,9.518-1.762q10.152,0,16.5,6.627a23.544,23.544,0,0,1,4.865,7.684,25.952,25.952,0,0,1,1.762,9.659v5.64H150.306v-4.794a11.641,11.641,0,0,0-2.4-7.332,7.765,7.765,0,0,0-6.486-3.1q-5.358,0-7.12,3.314a17.758,17.758,0,0,0-1.763,8.389v51.324a13.292,13.292,0,0,0,1.9,7.332q1.9,2.961,6.839,2.961a10.444,10.444,0,0,0,3.032-.493,9.044,9.044,0,0,0,3.031-1.622,8.6,8.6,0,0,0,2.115-3.1,12.568,12.568,0,0,0,.846-4.935v-4.935Zm26.085-58.233v31.3h8.178a14.471,14.471,0,0,0,6.063-1.057,8.24,8.24,0,0,0,3.525-3.032,13.782,13.782,0,0,0,1.551-4.864,46.774,46.774,0,0,0,.423-6.7,46.774,46.774,0,0,0-.423-6.7,13.4,13.4,0,0,0-1.692-5.005q-2.679-3.948-10.152-3.948ZM176.391,0V-100.392h23.124q25.38,0,25.38,29.469a37.138,37.138,0,0,1-2.749,15.087,21.321,21.321,0,0,1-9.659,10.011L228,0H212.769l-13.4-42.864h-8.6V0Zm106.6-100.392V-22.56a23.072,23.072,0,0,1-1.763,9.094,23.165,23.165,0,0,1-5.005,7.4,23.926,23.926,0,0,1-7.473,5.076A22.45,22.45,0,0,1,259.722.846a21.954,21.954,0,0,1-8.953-1.833,24.17,24.17,0,0,1-7.4-5.076,24.17,24.17,0,0,1-5.076-7.4,22.3,22.3,0,0,1-1.833-9.094v-77.832h14.382V-23.97q0,5.358,2.538,7.9a8.609,8.609,0,0,0,6.345,2.538,8.609,8.609,0,0,0,6.345-2.538q2.538-2.538,2.538-7.9v-76.422ZM296.946,0V-100.392h14.382V0Zm37.788,0V-86.856H318.1v-13.536h47.658v13.536H349.116V0Zm37.788,0V-100.392H386.9V0ZM400.3,0V-100.392h13.818L435.831-39.9h.282v-60.489h14.382V0H436.959l-22-60.348h-.282V0Zm62.322-76.7a25.65,25.65,0,0,1,2.115-10.716,22.645,22.645,0,0,1,5.64-7.755,23.844,23.844,0,0,1,7.685-4.512,25.4,25.4,0,0,1,8.671-1.551,25.4,25.4,0,0,1,8.672,1.551,25.56,25.56,0,0,1,7.826,4.512,23.61,23.61,0,0,1,5.5,7.755A25.65,25.65,0,0,1,510.843-76.7v5.076H496.461V-76.7q0-5.217-2.891-7.685a10.2,10.2,0,0,0-6.839-2.467,10.2,10.2,0,0,0-6.839,2.467Q477-81.921,477-76.7v53.016q0,5.217,2.891,7.684a10.2,10.2,0,0,0,6.839,2.467A10.2,10.2,0,0,0,493.57-16q2.891-2.467,2.891-7.684V-42.582H485.04v-12.69h25.8v31.584a25.417,25.417,0,0,1-2.115,10.857,22.4,22.4,0,0,1-5.5,7.473A24.179,24.179,0,0,1,495.4-.7,25.4,25.4,0,0,1,486.732.846,25.4,25.4,0,0,1,478.061-.7a22.625,22.625,0,0,1-7.685-4.653,21.526,21.526,0,0,1-5.64-7.473,25.417,25.417,0,0,1-2.115-10.857Z" transform="translate(101 510.855)" fill="#fff" opacity="0.8"/>
  </g>
</svg>
