<svg xmlns="http://www.w3.org/2000/svg" width="185.563" height="41.189" viewBox="0 0 185.563 41.189">
  <g id="グループ_3569" data-name="グループ 3569" transform="translate(-30 -9893.299)">
    <path id="パス_2027" data-name="パス 2027" d="M9.087-7.514h1.534a10.067,10.067,0,0,1,1.391.078v-1.43a9.56,9.56,0,0,1-1.391.078H9.087v-.9a7.633,7.633,0,0,1,.078-1.235H7.657a7.744,7.744,0,0,1,.078,1.235v.9H6.682c.065-.247.091-.338.169-.637a7.084,7.084,0,0,1,.195-.7L5.72-10.465a8.371,8.371,0,0,1-.988,3.159V-8.593a3.514,3.514,0,0,1-.7.052H3.64V-9.594A11.225,11.225,0,0,1,3.7-10.933H2.21a7.993,7.993,0,0,1,.078,1.339v1.053h-.65a3.742,3.742,0,0,1-.871-.065v1.4a3.951,3.951,0,0,1,.871-.065h.52A11.929,11.929,0,0,1,.416-3.341a4.726,4.726,0,0,1,.6,1.443A10.306,10.306,0,0,0,2.379-4.966a14.975,14.975,0,0,0-.091,1.677V-.494a13.192,13.192,0,0,1-.078,1.6H3.718a12.9,12.9,0,0,1-.078-1.6V-3.822c0-.572-.026-1.287-.052-1.716a7.559,7.559,0,0,0,.793,1.625A4.086,4.086,0,0,1,4.94-5.005v.533A11.18,11.18,0,0,1,6.357-4.55h.858A8.534,8.534,0,0,1,3.9-1.144,5.784,5.784,0,0,1,4.706.091,9.292,9.292,0,0,0,7.787-3.276c-.039.507-.052.975-.052,1.339V-.39a12.456,12.456,0,0,1-.078,1.508h1.5A11.87,11.87,0,0,1,9.074-.39V-2.028c0-.377-.013-.845-.052-1.287a9.2,9.2,0,0,0,1.391,1.989A8.346,8.346,0,0,0,11.869.039a3.4,3.4,0,0,1,.91-1.352A8.508,8.508,0,0,1,9.542-4.55H11c.559,0,.975.026,1.4.065V-5.954a10.332,10.332,0,0,1-1.391.078H9.087Zm-1.352,0v1.638H6.357A10.484,10.484,0,0,1,4.94-5.954v.741A8.771,8.771,0,0,1,3.718-7.267h.325a4.65,4.65,0,0,1,.637.039c-.065.1-.1.156-.221.312a4.755,4.755,0,0,1,1.066.845,8.35,8.35,0,0,0,.728-1.443ZM23.491-8.671l1.053-.6a11.527,11.527,0,0,0-1.287-1.469l-1.131.533a7.99,7.99,0,0,1,1.235,1.534H21.827c-.013-.429-.013-.806-.013-1.027a8.92,8.92,0,0,1,.052-1.053H20.293a7.494,7.494,0,0,1,.078,1.014c0,.39,0,.39.039,1.066H15.262a11.953,11.953,0,0,1-1.521-.078v1.456a13.647,13.647,0,0,1,1.521-.078h5.2a20.389,20.389,0,0,0,.312,3.094A9.45,9.45,0,0,0,22.217-.364,2.689,2.689,0,0,0,23.946.9a1.119,1.119,0,0,0,.9-.546,6,6,0,0,0,.741-2.444,5.828,5.828,0,0,1-1.235-.728c-.169,1.352-.325,1.976-.481,1.976a.955.955,0,0,1-.3-.234,4.232,4.232,0,0,1-.78-1.287,14.817,14.817,0,0,1-.91-5h1.9a11.4,11.4,0,0,1,1.521.078V-8.749a6.283,6.283,0,0,1-1.261.078ZM16.38-4.511V-1.3a18.488,18.488,0,0,1-2.613.3L14,.468c.221-.039.364-.065.481-.091,1.742-.26,3.8-.676,5.993-1.209V-2.158c-1.248.312-1.755.416-2.665.6V-4.511h.9a12.561,12.561,0,0,1,1.3.065V-5.824a11.049,11.049,0,0,1-1.313.065H15.548a11.551,11.551,0,0,1-1.339-.065v1.378a12.635,12.635,0,0,1,1.313-.065ZM29.211-5.668a10.4,10.4,0,0,1,1.118-.052h4.342a9.875,9.875,0,0,1,1.17.052V-6.682A13.862,13.862,0,0,0,38.064-5.5a5.789,5.789,0,0,1,.715-1.456A13.741,13.741,0,0,1,35.438-8.71a7.9,7.9,0,0,1-2.2-2.158H31.694A8.56,8.56,0,0,1,29.64-8.684a12.131,12.131,0,0,1-3.263,1.807,6.038,6.038,0,0,1,.754,1.326,12.232,12.232,0,0,0,2.08-1.118Zm1.131-1.4c-.234,0-.312,0-.533-.013a11.1,11.1,0,0,0,2.7-2.522A10.59,10.59,0,0,0,35.23-7.085c-.247.013-.364.013-.572.013Zm.13,3.757a13.461,13.461,0,0,1-1.391,2.6c-.663.039-1.053.052-1.144.052-.182,0-.4-.013-.754-.039L27.391.884A15.458,15.458,0,0,1,29.068.7c.52-.039,3.094-.273,4.381-.39C33.93.26,34.71.169,35.789.026c.221.312.351.494.78,1.131L37.817.338a26.6,26.6,0,0,0-3-3.471l-1.287.572c.728.754.949.988,1.365,1.443-1.82.195-1.82.195-4.121.325a14.132,14.132,0,0,0,1.352-2.522H36.6a12.1,12.1,0,0,1,1.521.078V-4.745a12.24,12.24,0,0,1-1.521.078H28.5a12.768,12.768,0,0,1-1.534-.078v1.508A12.179,12.179,0,0,1,28.5-3.315Zm12.428-.7a7.136,7.136,0,0,0,1.677,1.469,5.544,5.544,0,0,1,.715-1.274,7.665,7.665,0,0,1-2.067-1.651,10.681,10.681,0,0,0,1.3-2.223,3.614,3.614,0,0,1,.286-.546l-.624-.676a4.735,4.735,0,0,1-.754.039H42.9V-9.945a5.541,5.541,0,0,1,.078-1.014H41.4a5.969,5.969,0,0,1,.078.988v1.092h-.65a7.937,7.937,0,0,1-1.027-.052v1.443A8.9,8.9,0,0,1,40.9-7.54h2.119a7.724,7.724,0,0,1-1.417,2,8.966,8.966,0,0,1-2.236,1.755,5.037,5.037,0,0,1,.663,1.352A8.761,8.761,0,0,0,41.47-3.536V-.273a7.777,7.777,0,0,1-.078,1.352h1.573A9.232,9.232,0,0,1,42.9-.247Zm5.512-1.924H49.79c.455,0,.858.026,1.274.065V-7.345a8.455,8.455,0,0,1-1.274.065H48.412V-9.568A7.621,7.621,0,0,1,48.5-10.92H46.878a9.2,9.2,0,0,1,.091,1.352V-7.28h-.975a8.776,8.776,0,0,1-1.274-.065v1.469c.416-.039.832-.065,1.274-.065h.975V-.858H45.552a11.788,11.788,0,0,1-1.5-.078V.637A10.484,10.484,0,0,1,45.526.546h4.446a10.675,10.675,0,0,1,1.482.091V-.936a11.151,11.151,0,0,1-1.482.078h-1.56Zm14.885-4a3.579,3.579,0,0,1-1.261.117H55.25a10.364,10.364,0,0,1-1.794-.1v1.625a12.5,12.5,0,0,1,1.768-.078h6.825a5.391,5.391,0,0,1-1.235,1.651,6.028,6.028,0,0,1-1.9,1.2,4.394,4.394,0,0,1,1.17,1.183,8.131,8.131,0,0,0,1.56-1.079,8.25,8.25,0,0,0,2-2.613,3.613,3.613,0,0,1,.52-.91ZM57.122-7.319a3.292,3.292,0,0,1,.065.78c0,2.457-.416,3.575-1.742,4.628A5.994,5.994,0,0,1,53.17-.806,4.589,4.589,0,0,1,54.2.676a7.512,7.512,0,0,0,3.354-2.34c.884-1.131,1.235-2.379,1.287-4.6a5.969,5.969,0,0,1,.052-1.053ZM65.4-4.082a14.271,14.271,0,0,1,2.119-.065h6.9a14.271,14.271,0,0,1,2.119.065V-5.889a12.767,12.767,0,0,1-2.106.091H67.509A12.767,12.767,0,0,1,65.4-5.889Zm14.716-6.084a6.534,6.534,0,0,1,.052,1.183c0,3.64-.3,5.317-1.235,6.812A5.341,5.341,0,0,1,77.6-.676,4.627,4.627,0,0,1,78.91.585,8.278,8.278,0,0,0,80.7-1.82a12.172,12.172,0,0,0,1.053-5.343,27.171,27.171,0,0,1,.13-2.912Zm3.445-.091a5.626,5.626,0,0,1,.052.858v.39l-.065,7.332A5.826,5.826,0,0,1,83.434-.3l.832.884a5.656,5.656,0,0,1,.559-.234,8.586,8.586,0,0,0,2.769-1.56,8.068,8.068,0,0,0,2.067-3.029A5.449,5.449,0,0,1,88.439-5.46a6.352,6.352,0,0,1-1.274,2.379A5.226,5.226,0,0,1,85.176-1.6L85.241-9a7.045,7.045,0,0,1,.091-1.235ZM97.773-7.4c0-.143,0-.143.013-1l.013-.78a8.2,8.2,0,0,1,.065-1.248H96.07a8.184,8.184,0,0,1,.065,1.248v.767c0,.234,0,.468-.013,1.014H92.846a9.4,9.4,0,0,1-1.69-.091V-5.85a13.353,13.353,0,0,1,1.664-.065h3.224A5.62,5.62,0,0,1,95.407-3.3,6,6,0,0,1,92.274-.741a4.038,4.038,0,0,1,1.183,1.4,7.827,7.827,0,0,0,3.315-2.912,7.177,7.177,0,0,0,.936-3.666h2.665a13.353,13.353,0,0,1,1.664.065V-7.488a9.312,9.312,0,0,1-1.69.091Zm15.249-3.159A10.4,10.4,0,0,1,110.6-8.125a18.986,18.986,0,0,1-6.825,3.38,4.89,4.89,0,0,1,.871,1.482,21.063,21.063,0,0,0,4.641-2.106V-.793a7.312,7.312,0,0,1-.078,1.4h1.82a9.834,9.834,0,0,1-.065-1.443V-6.383a22.988,22.988,0,0,0,3.068-2.678,5.355,5.355,0,0,1,.481-.455Zm4.654,2.21a13.649,13.649,0,0,1,3.315,2.639l1.118-1.417a18.412,18.412,0,0,0-3.354-2.509Zm.455,8.58a4.6,4.6,0,0,1,.858-.221,14.042,14.042,0,0,0,4.953-1.95,11.409,11.409,0,0,0,4.121-5.1,5.606,5.606,0,0,1-1.378-1.274,10.855,10.855,0,0,1-1.326,2.6A8.686,8.686,0,0,1,121.5-2.522a12.387,12.387,0,0,1-3.848.962Z" transform="translate(87.5 9916.639)" fill="#fff"/>
    <path id="パス_2028" data-name="パス 2028" d="M8.6-8.27a26.884,26.884,0,0,1-5.02.71,3.048,3.048,0,0,1,.24.76,27.691,27.691,0,0,0,5.4-.75ZM8.14-4.16A19.52,19.52,0,0,0,9.51-6.57l-.87-.32A15.764,15.764,0,0,1,7.42-4.46ZM6.95-4.93a6.6,6.6,0,0,0-.48-1.81l-.78.14a6.867,6.867,0,0,1,.43,1.85Zm-1.77.28A7.1,7.1,0,0,0,4.46-6.5l-.74.21A7.136,7.136,0,0,1,4.38-4.4Zm-1.81.44-.91.27V-5.59h1v-.86h-1V-8.38H1.61v1.93H.45v.86H1.61v1.9c-.49.14-.94.27-1.3.36l.21.9c.33-.11.7-.22,1.09-.34V-.24c0,.14-.05.17-.18.17-.11.01-.48.01-.88,0A2.969,2.969,0,0,1,.8.79,2.983,2.983,0,0,0,2.1.62c.27-.15.36-.4.36-.86V-3.03c.34-.11.69-.22,1.03-.33Zm6.1,1.54v-.81H6.98V-4.55H6.1v1.07H3.66v.81H5.57A6.3,6.3,0,0,1,3.06-.46a3.562,3.562,0,0,1,.63.71A7.058,7.058,0,0,0,6.1-2.06V.72h.88V-2.04A7.406,7.406,0,0,0,9.14.21a4.019,4.019,0,0,1,.61-.69A6.417,6.417,0,0,1,7.48-2.67Zm6.07-.39V-4.54h2.42v1.48Zm-3.14,0c.03-.37.04-.74.04-1.08v-.4h2.17v1.48Zm2.21-3.76v1.41H12.44V-6.82Zm3.35,1.41H15.54V-6.82h2.42Zm.93-2.3H11.52v3.56c0,1.41-.1,3.18-1.19,4.39a3.078,3.078,0,0,1,.73.61,5.736,5.736,0,0,0,1.25-3.03h2.3V.68h.93V-2.18h2.42V-.39c0,.19-.07.25-.25.25s-.85.01-1.49-.02a3.842,3.842,0,0,1,.31.9A5.474,5.474,0,0,0,18.4.58c.36-.14.49-.42.49-.96Zm8.43,1.88V-6.99a6.521,6.521,0,0,1,.06-.87H26.25a6.9,6.9,0,0,1,.05.87v1.16H23.66V-6.98a5.39,5.39,0,0,1,.06-.8H22.6c.01.13.05.45.05.8v1.15h-.98a8.129,8.129,0,0,1-1.04-.07v1.07c.16-.01.57-.03,1.04-.03h.98v1.5c0,.41-.04.83-.05.97h1.1c-.01-.14-.04-.56-.04-.97v-1.5H26.3v.4c0,2.65-.88,3.51-2.75,4.2l.85.8c2.34-1.05,2.92-2.48,2.92-5.06v-.34h.95c.47,0,.83.01.99.03V-5.89a5.658,5.658,0,0,1-1,.06Zm8.73.82a16.588,16.588,0,0,0,2.67-2.15l-.85-.77a10.939,10.939,0,0,1-2.61,2.24,15.7,15.7,0,0,1-4.51,1.82l.57.97a19.169,19.169,0,0,0,3.62-1.47V-.81A11.588,11.588,0,0,1,34.88.37h1.24a7.52,7.52,0,0,1-.07-1.18ZM48.57-3.54a34.508,34.508,0,0,0-4.23-1.6V-6.7c0-.35.04-.79.07-1.12H43.18a7.239,7.239,0,0,1,.09,1.12V-.92A10.468,10.468,0,0,1,43.19.36h1.23a11.717,11.717,0,0,1-.08-1.28V-4.01a26.659,26.659,0,0,1,3.78,1.56Z" transform="translate(87.5 9933.639)" fill="#fff"/>
    <g id="グループ_2954" data-name="グループ 2954" transform="translate(30 9893.299)">
      <path id="パス_944" data-name="パス 944" d="M11.675,44.223a2.71,2.71,0,0,0-1.916-.8,2.8,2.8,0,0,0-.921.155,2.715,2.715,0,1,0-5.2,0,2.733,2.733,0,1,0,1.715,1.786,2.713,2.713,0,0,0,1.774,0,2.755,2.755,0,0,0-.119.8,2.735,2.735,0,0,0,2.738,2.728h0a2.735,2.735,0,0,0,1.928-4.669m-7.74,3.134a1.7,1.7,0,1,1,.5-1.2,1.689,1.689,0,0,1-.5,1.2m1.116-3.376a1.678,1.678,0,1,1,1.187.492,1.671,1.671,0,0,1-1.187-.492m5.89,3.376a1.7,1.7,0,0,1-2.4-2.4h0a1.709,1.709,0,0,1,1.218-.5,1.7,1.7,0,0,1,1.68,1.68,1.708,1.708,0,0,1-.5,1.218" transform="translate(0 -35.85)" fill="#fff"/>
      <path id="パス_945" data-name="パス 945" d="M99.669,3.195a2.11,2.11,0,0,0-2.186-.5,2.093,2.093,0,1,0-4.01,0,2.107,2.107,0,1,0,1.322,1.377,2.094,2.094,0,0,0,1.368,0,2.136,2.136,0,0,0-.092.62,2.108,2.108,0,0,0,2.112,2.1h0a2.108,2.108,0,0,0,1.486-3.6M93.7,5.611a1.309,1.309,0,1,1,.383-.925,1.3,1.3,0,0,1-.383.925m.861-2.6a1.293,1.293,0,1,1,.915.379,1.288,1.288,0,0,1-.915-.379m4.541,2.6a1.309,1.309,0,1,1,.383-.925,1.3,1.3,0,0,1-.383.925" transform="translate(-81.103)" fill="#fff"/>
      <path id="パス_946" data-name="パス 946" d="M115.955,67.327a8.034,8.034,0,0,0-2.347-5.7,7.948,7.948,0,0,0-2.684-1.768,8.21,8.21,0,0,0-3.04-.579,7.863,7.863,0,0,0-3.7.926q.018-.268.019-.54a7.953,7.953,0,1,0-15.907,0c0,.183.007.365.019.545a8.015,8.015,0,0,0-11.767,7.069s0,.009,0,.014h0A8.014,8.014,0,0,0,84.567,75.3h0a8.014,8.014,0,0,0,8.013-8.015q0-.294-.021-.583a7.923,7.923,0,0,0,3.693.909h0a7.923,7.923,0,0,0,3.691-.908q-.021.291-.021.583A8.015,8.015,0,0,0,107.94,75.3h.007l-5.838,5.121,1.324,1.509,9.8-8.6-.015-.018c.131-.115.259-.234.384-.359a7.954,7.954,0,0,0,2.347-5.63m-27.14,4.21a6.007,6.007,0,1,1,0-8.495,6.078,6.078,0,0,1,.678.81q.1.163.21.321a6.01,6.01,0,0,1-.889,7.364m11.643-7.671a5.945,5.945,0,0,1-8.408,0,6,6,0,0,1-.67-.8q-.1-.163-.21-.322a5.946,5.946,0,1,1,10.175-.009q-.117.169-.224.342a6.009,6.009,0,0,1-.662.788M107.94,73.3a6.009,6.009,0,0,1-5.138-9.12q.114-.165.22-.337a6.074,6.074,0,0,1,.671-.8,5.924,5.924,0,0,1,4.191-1.759,6.2,6.2,0,0,1,2.3.436,5.939,5.939,0,0,1,2.007,1.323,6.023,6.023,0,0,1,1.759,4.285A6.007,6.007,0,0,1,107.94,73.3" transform="translate(-68.475 -46.252)" fill="#fff"/>
      <path id="パス_947" data-name="パス 947" d="M126.153,167.765H129.5a2.238,2.238,0,0,1,1.529.508,1.7,1.7,0,0,1,.581,1.34,1.578,1.578,0,0,1-.646,1.4,1.812,1.812,0,0,1-.389.2,1.675,1.675,0,0,1,.221.109,1.263,1.263,0,0,1,.592,1.139l.032,1.089a1.37,1.37,0,0,0,.068.461.441.441,0,0,0,.226.217v.176h-1.533a1.545,1.545,0,0,1-.095-.445,6.894,6.894,0,0,1-.045-.734l-.009-.615a.763.763,0,0,0-.264-.637,1.449,1.449,0,0,0-.847-.19H127.54v2.625h-1.387Zm1.387,2.9h1.609a1.257,1.257,0,0,0,.807-.219.8.8,0,0,0,.269-.662.819.819,0,0,0-.255-.658,1.151,1.151,0,0,0-.766-.219H127.54Z" transform="translate(-112.843 -150.064)" fill="#fff"/>
    </g>
  </g>
</svg>
