<svg xmlns="http://www.w3.org/2000/svg" width="187.5" height="35.681" viewBox="0 0 187.5 35.681">
  <g id="グループ_3446" data-name="グループ 3446" transform="translate(-13.5 -18.659)">
    <text id="株式会社アールナイン" transform="translate(71 34)" fill="#212b63" font-size="13" font-family="NotoSansJP-Bold, Noto Sans JP" font-weight="700"><tspan x="0" y="0">株式会社</tspan><tspan y="0">アールナイン</tspan></text>
    <text id="新卒採用サイト" transform="translate(71 51)" fill="#212b63" font-size="10" font-family="NotoSansJP-Medium, Noto Sans JP" font-weight="500"><tspan x="0" y="0">新卒採用</tspan><tspan y="0">サイト</tspan></text>
    <g id="グループ_2953" data-name="グループ 2953" transform="translate(13.5 18.659)">
      <path id="パス_944" data-name="パス 944" d="M11.675,44.223a2.71,2.71,0,0,0-1.916-.8,2.8,2.8,0,0,0-.921.155,2.715,2.715,0,1,0-5.2,0,2.733,2.733,0,1,0,1.715,1.786,2.713,2.713,0,0,0,1.774,0,2.755,2.755,0,0,0-.119.8,2.735,2.735,0,0,0,2.738,2.728h0a2.735,2.735,0,0,0,1.928-4.669m-7.74,3.134a1.7,1.7,0,1,1,.5-1.2,1.689,1.689,0,0,1-.5,1.2m1.116-3.376a1.678,1.678,0,1,1,1.187.492,1.671,1.671,0,0,1-1.187-.492m5.89,3.376a1.7,1.7,0,0,1-2.4-2.4h0a1.709,1.709,0,0,1,1.218-.5,1.7,1.7,0,0,1,1.68,1.68,1.708,1.708,0,0,1-.5,1.218" transform="translate(0 -35.85)" fill="#0a2054"/>
      <path id="パス_945" data-name="パス 945" d="M99.669,3.195a2.11,2.11,0,0,0-2.186-.5,2.093,2.093,0,1,0-4.01,0,2.107,2.107,0,1,0,1.322,1.377,2.094,2.094,0,0,0,1.368,0,2.136,2.136,0,0,0-.092.62,2.108,2.108,0,0,0,2.112,2.1h0a2.108,2.108,0,0,0,1.486-3.6M93.7,5.611a1.309,1.309,0,1,1,.383-.925,1.3,1.3,0,0,1-.383.925m.861-2.6a1.293,1.293,0,1,1,.915.379,1.288,1.288,0,0,1-.915-.379m4.541,2.6a1.309,1.309,0,1,1,.383-.925,1.3,1.3,0,0,1-.383.925" transform="translate(-81.103)" fill="#0a2054"/>
      <path id="パス_946" data-name="パス 946" d="M115.955,67.327a8.034,8.034,0,0,0-2.347-5.7,7.948,7.948,0,0,0-2.684-1.768,8.21,8.21,0,0,0-3.04-.579,7.863,7.863,0,0,0-3.7.926q.018-.268.019-.54a7.953,7.953,0,1,0-15.907,0c0,.183.007.365.019.545a8.015,8.015,0,0,0-11.767,7.069s0,.009,0,.014h0A8.014,8.014,0,0,0,84.567,75.3h0a8.014,8.014,0,0,0,8.013-8.015q0-.294-.021-.583a7.923,7.923,0,0,0,3.693.909h0a7.923,7.923,0,0,0,3.691-.908q-.021.291-.021.583A8.015,8.015,0,0,0,107.94,75.3h.007l-5.838,5.121,1.324,1.509,9.8-8.6-.015-.018c.131-.115.259-.234.384-.359a7.954,7.954,0,0,0,2.347-5.63m-27.14,4.21a6.007,6.007,0,1,1,0-8.495,6.078,6.078,0,0,1,.678.81q.1.163.21.321a6.01,6.01,0,0,1-.889,7.364m11.643-7.671a5.945,5.945,0,0,1-8.408,0,6,6,0,0,1-.67-.8q-.1-.163-.21-.322a5.946,5.946,0,1,1,10.175-.009q-.117.169-.224.342a6.009,6.009,0,0,1-.662.788M107.94,73.3a6.009,6.009,0,0,1-5.138-9.12q.114-.165.22-.337a6.074,6.074,0,0,1,.671-.8,5.924,5.924,0,0,1,4.191-1.759,6.2,6.2,0,0,1,2.3.436,5.939,5.939,0,0,1,2.007,1.323,6.023,6.023,0,0,1,1.759,4.285A6.007,6.007,0,0,1,107.94,73.3" transform="translate(-68.475 -46.252)" fill="#0a2054"/>
      <path id="パス_947" data-name="パス 947" d="M126.153,167.765H129.5a2.238,2.238,0,0,1,1.529.508,1.7,1.7,0,0,1,.581,1.34,1.578,1.578,0,0,1-.646,1.4,1.812,1.812,0,0,1-.389.2,1.675,1.675,0,0,1,.221.109,1.263,1.263,0,0,1,.592,1.139l.032,1.089a1.37,1.37,0,0,0,.068.461.441.441,0,0,0,.226.217v.176h-1.533a1.545,1.545,0,0,1-.095-.445,6.894,6.894,0,0,1-.045-.734l-.009-.615a.763.763,0,0,0-.264-.637,1.449,1.449,0,0,0-.847-.19H127.54v2.625h-1.387Zm1.387,2.9h1.609a1.257,1.257,0,0,0,.807-.219.8.8,0,0,0,.269-.662.819.819,0,0,0-.255-.658,1.151,1.151,0,0,0-.766-.219H127.54Z" transform="translate(-112.843 -150.064)" fill="#0a2054"/>
    </g>
  </g>
</svg>
