<svg xmlns="http://www.w3.org/2000/svg" width="614.12" height="278.95" viewBox="0 0 614.12 278.95">
  <path id="パス_855" data-name="パス 855" d="M128.693-71.332q1.257.419,2.375.838l2.235.838q-.7,2.794,2.375,3.073a5.676,5.676,0,0,1,3.841,1.816q1.327,1.537,2.584,3.073a2.834,2.834,0,0,1,.559,1.537q.14,3.492.21,6.915a13.527,13.527,0,0,1-2.026,7.054,62.46,62.46,0,0,0-2.724,6.286,38.752,38.752,0,0,1-3,6.286q-1.816,3.073-3.213,6.077t-2.934,6.216a3.279,3.279,0,0,1-.7,1.118,17.894,17.894,0,0,0-2.584,4.4,29.127,29.127,0,0,0-1.327,5.378,12.307,12.307,0,0,1-.489,1.676,12.249,12.249,0,0,1-.908,1.956q-.559.978-1.048,1.886a5.834,5.834,0,0,1-.908,1.327,1.988,1.988,0,0,1-.419.349.756.756,0,0,0-.279.349,2.837,2.837,0,0,1-.7,2.584,14.245,14.245,0,0,0-1.676,2.165,6.948,6.948,0,0,0-.908,1.467,2.472,2.472,0,0,0-.07,1.746,1.764,1.764,0,0,1-.489,1.467,8.633,8.633,0,0,0-1.048,1.606,25.63,25.63,0,0,0-1.118,2.864,25.624,25.624,0,0,1-1.118,2.864,5.651,5.651,0,0,1-.629,1.187q-.349.489-.768,1.048a2.172,2.172,0,0,0-.349.908,2.172,2.172,0,0,1-.349.908.861.861,0,0,0,.14.489q.14.21-.14.349a4.466,4.466,0,0,0-1.048,2.1q-.21,1.118-.489,2.235A5.13,5.13,0,0,1,109,24.845q-.419.768-.978,1.606a5.812,5.812,0,0,0-.629,1.467,5.813,5.813,0,0,1-.629,1.467,9.614,9.614,0,0,1-.559,1.187,9.61,9.61,0,0,0-.559,1.187q-.559,1.537-1.187,3.143t-1.327,3.283a49.363,49.363,0,0,0-2.445,7.264,35.487,35.487,0,0,1-2.724,7.264,15.984,15.984,0,0,0-1.048,3.073,8.3,8.3,0,0,1-1.327,2.933,3.235,3.235,0,0,1-.349,2.724q-.768,1.187-1.606,2.3a2.144,2.144,0,0,0-.279.838,28.717,28.717,0,0,1-2.375,8.521,2.482,2.482,0,0,0-.21.7,2.482,2.482,0,0,1-.21.7q-.279,1.956-.7,4.051t-.7,4.051a.8.8,0,0,0-.279.559,8.822,8.822,0,0,0-1.746,4.889,26.531,26.531,0,0,1-.629,5.029,11.635,11.635,0,0,1-5.029,7.823,12.881,12.881,0,0,0-2.584-.838,5.089,5.089,0,0,1-2.3-1.118A10.739,10.739,0,0,1,73.794,94.2a19.348,19.348,0,0,1-.978-9.639q.279-3.213.349-6.286a42.274,42.274,0,0,1,.629-6.286q.419-2.933,1.118-5.867t1.537-5.867q1.537-5.727,3.283-11.315t3.7-11.175q2.375-7.124,4.959-14.109T93.63,9.549q1.537-4.47,3.213-8.731t3.213-8.591q.419-1.118.978-2.3t.978-2.3q2.933-6.845,5.727-13.55t5.588-13.55l3.911-9.5,3.911-9.5a2.482,2.482,0,0,0,.21-.7l.21-1.257q-1.537,1.118-2.724,2.026a10.43,10.43,0,0,0-2.026,2.026,30.99,30.99,0,0,1-3.353,3.632,12.943,12.943,0,0,0-2.933,4.051l-.559.559-.559.559A55.56,55.56,0,0,0,98.939-34.454a12.283,12.283,0,0,1-1.746,2.165,12.283,12.283,0,0,0-1.746,2.165,33.2,33.2,0,0,1-3.632,5.518A19.522,19.522,0,0,0,88.6-18.948a13.26,13.26,0,0,1-2.1,3.911q-1.4,1.816-2.654,3.772a2.109,2.109,0,0,1-.7.838,13.3,13.3,0,0,1-1.676,1.4A2.9,2.9,0,0,0,80.36-6.8q0,.279-.489.559t-.908.559a20.818,20.818,0,0,1,.419,2.1q.14.978.419,2.375Q78.264,1.307,76.448,4.1T72.956,9.828a40.989,40.989,0,0,0-2.025,3.7q-.908,1.886-1.886,3.841Q63.6,27.569,58.219,37.626T47.533,57.881q-1.118,2.235-2.235,4.261a17.194,17.194,0,0,1-2.933,3.841,14.441,14.441,0,0,1-1.327,1.187,12.73,12.73,0,0,0-1.187,1.048,6.413,6.413,0,0,1-1.956.978,1.455,1.455,0,0,1-1.676-.7l-.279-.14a5.736,5.736,0,0,1-3-.908,4.055,4.055,0,0,1-1.467-1.956,9.094,9.094,0,0,1-.489-2.584q-.07-1.4-.07-2.794a49.081,49.081,0,0,1,.838-5.238q.559-2.584,1.257-5.1,1.537-5.308,3.213-10.477t3.213-10.477q1.676-5.588,3.283-11.175T45.856,6.475Q46.974,2.424,48.022-1.7t2.025-8.172q.419-1.537.7-3.143t.559-3.422a2.409,2.409,0,0,1-.7.349,1.236,1.236,0,0,0-.559.349q-1.257,1.956-2.514,3.772T45.158-8.192Q42.783-4,40.688.119t-4.33,8.312q-2.933,5.308-5.727,10.2-.7,1.257-1.4,2.584t-1.4,2.584A25.09,25.09,0,0,1,25.6,26.032a4.054,4.054,0,0,1-.21,3.213,21.261,21.261,0,0,1-2.026,3.213,19.757,19.757,0,0,0-1.956,3.353l-1.676,3.632Q18.477,42.1,17.22,44.611a35.332,35.332,0,0,0-2.1,5.169,34.009,34.009,0,0,1-2.654,6.5,17.009,17.009,0,0,0-1.956,6.775A2.756,2.756,0,0,1,9.746,64.8Q8.978,65.7,8.28,66.4a3.126,3.126,0,0,0-1.118,2.1,5.985,5.985,0,0,0,.419,2.1,4.325,4.325,0,0,1,.21,2.165,11.207,11.207,0,0,1-1.327,1.886q-.978-.419-1.746-.768a12.589,12.589,0,0,0-1.746-.629,17.9,17.9,0,0,1-1.606-.908A4.991,4.991,0,0,1-.1,70.733a15.442,15.442,0,0,1-2.375-6.426,29.2,29.2,0,0,1,0-6.985A71.142,71.142,0,0,1,.736,41.328q2.514-7.753,5.727-15.575Q7.721,22.959,8.838,20.1t2.235-5.657l1.956-3.911,1.956-3.911q1.676-3.492,3.283-6.985T21.69-7.354q2.375-4.749,4.749-9.289t4.889-9.15q2.235-4.33,4.47-8.451t4.47-8.451a2.426,2.426,0,0,0,.489-.768q.21-.489.349-.768Q40.548-46.886,43.342-48a4.5,4.5,0,0,0,1.886-1.327,1.913,1.913,0,0,1,2.3-.349.74.74,0,0,0,.629,0,3.7,3.7,0,0,1,.768-.21.877.877,0,0,1,.7.14.907.907,0,0,1,.279.768q0,.279.559.279a4,4,0,0,1,3.283,0q1.327.7,2.724,1.4,1.118.559,2.1.978a5.285,5.285,0,0,1,1.676,1.118,3.537,3.537,0,0,0,2.375,1.257A3.06,3.06,0,0,1,64.854-42.7a4.612,4.612,0,0,1,1.257,3.353q-.279,2.235-.559,4.4a32.813,32.813,0,0,1-.838,4.261,28.012,28.012,0,0,1-.768,3.143q-.489,1.606-.908,3.143-1.118,4.051-2.235,8.172T58.289-8.052a12.824,12.824,0,0,0-.838,3.632,11.27,11.27,0,0,1-.838,3.492q-.7,1.816-1.467,3.492A13.136,13.136,0,0,0,54.1,6.056q-.419,1.537-.7,2.864a8.88,8.88,0,0,1-1.118,2.724,2.568,2.568,0,0,0,0,1.676,1.128,1.128,0,0,0-.07.7,1.128,1.128,0,0,1-.07.7q-.7,1.956-1.327,3.7t-1.327,3.7Q48.929,23.8,48.51,25.4a19.446,19.446,0,0,1-1.118,3.143,23.89,23.89,0,0,0-1.257,4.191,10.488,10.488,0,0,1-1.816,4.051,3.437,3.437,0,0,0-.559,1.4q-.7,2.1-1.187,4.261t-1.187,4.4q-.419,1.118-.978,2.3t-1.118,2.3a4.39,4.39,0,0,1-.07.7,9.2,9.2,0,0,1-.349,1.257q.7-.7,1.048-.978a7.621,7.621,0,0,0,.629-.559q2.794-5.029,5.518-10.128T51.723,31.48q3.492-6.286,7.054-12.642T65.972,6.2q2.794-4.889,5.8-9.639t6.077-9.5q2.933-4.749,5.937-9.359t6.077-9.22a144.97,144.97,0,0,1,8.661-11.8q4.61-5.657,9.639-10.966,3.911-4.33,8.1-8.172a82.225,82.225,0,0,1,9.08-7.194,12.856,12.856,0,0,1,1.746-.978Q127.994-71.053,128.693-71.332ZM90.138,34.553a4.79,4.79,0,0,1-.978.489q-.559.21-.559.489-.838,2.1-1.537,4.191t-1.4,4.33a7.261,7.261,0,0,0-.349,1.746,9.531,9.531,0,0,1-.349,1.886,3.1,3.1,0,0,0,1.816-1.257,12.8,12.8,0,0,0,.7-1.676l.559-1.676a20.58,20.58,0,0,0,.7-2.235L89.3,38.6q.14-1.118.349-2.1t.349-2.1a10.409,10.409,0,0,0,.21-1.048q.07-.489.21-1.327a3.438,3.438,0,0,0-.7,1.257A4.549,4.549,0,0,0,90.138,34.553Zm24.027-90.24a4.255,4.255,0,0,0-2.864.768,9.951,9.951,0,0,0-2.026,1.746q-.978,1.257-2.026,2.445A6.746,6.746,0,0,0,105.783-48a4.257,4.257,0,0,1-.978,1.4,17.011,17.011,0,0,1-1.4,1.257,1.046,1.046,0,0,1-.908.14,3.319,3.319,0,0,0-.908-.14q-.279,0-.559.559a14.533,14.533,0,0,1,.7,1.537q-2.654,3.772-4.749,6.426A10.208,10.208,0,0,1,95.8-35.571q-.629.559-1.467,1.257a2.43,2.43,0,0,1,.21,1.327q-.07.768-1.327,1.467a9.255,9.255,0,0,1-.14-1.956,15.817,15.817,0,0,0-1.746,2.3q-.629,1.048.908,2.584a2.078,2.078,0,0,0-1.4.14,2.235,2.235,0,0,0-.7.768l-.559.978a1.284,1.284,0,0,1-.838.629,2.691,2.691,0,0,0-1.257,1.4,10.084,10.084,0,0,1-1.257,1.956q-.279,1.257-.559,2.584t-.7,3q1.118-1.537,1.816-2.724t1.4-2.3q1.4-2.1,2.654-4.121a44.028,44.028,0,0,1,2.794-3.981q1.816-2.514,3.7-4.959t3.841-4.819q2.794-3.772,5.867-7.473t6.146-7.473a1.987,1.987,0,0,1,.419-.349,1.988,1.988,0,0,0,.419-.349q.7-.7,1.537-1.467T117.1-58.62q-.279-.279-.279-.419-.838.419-1.676.768a11.817,11.817,0,0,0-1.537.768q.14.559.279.978ZM81.477,61.653A3.164,3.164,0,0,0,79.8,63.888a9.825,9.825,0,0,1-.559,2.375,17.681,17.681,0,0,0-.7,2.375l-.559,2.514a2.022,2.022,0,0,0,1.816-.838,3.432,3.432,0,0,0,.279-1.257,6.473,6.473,0,0,1,.14-1.257q.279-1.537.629-3.073T81.477,61.653Zm1.257-5.588q.7-1.4,1.187-2.445a11.979,11.979,0,0,0,.768-2.165.807.807,0,0,0,0-.908,5.118,5.118,0,0,1-.419-.908.62.62,0,0,0-.279.07.62.62,0,0,1-.279.07,4.29,4.29,0,0,1-.279,1.467q-.279.768-.559,1.467a7.409,7.409,0,0,0-.419,1.537A3.234,3.234,0,0,0,82.734,56.065Zm-3.772,16.2q-2.514,2.514-1.676,6.705.419-1.676.838-3.213T78.963,72.269ZM80.5,60.256q1.537-.7,1.676-1.118a5.26,5.26,0,0,0-.279-2.1,19.44,19.44,0,0,1-.768,1.816Q80.779,59.558,80.5,60.256ZM92.233,25.473a.973.973,0,0,1,.419.07.973.973,0,0,0,.419.07q.978-.419.7-1.257a5.273,5.273,0,0,1-.279-1.676q-.279.7-.629,1.4T92.233,25.473ZM121.01-62.392a5.3,5.3,0,0,0-1.886.559,4.852,4.852,0,0,0-.908,1.676q.7-.559,1.4-1.048A10.531,10.531,0,0,0,121.01-62.392ZM90,31.34a2.4,2.4,0,0,0,1.537-1.048,2.364,2.364,0,0,0-.14-1.746ZM77.706-9.868a5.245,5.245,0,0,1,.559-.489q.279-.21.279-.349,0-.419-.559-.7a3,3,0,0,0-.559.7Q77.287-10.567,77.706-9.868Zm126.42,27.519v.559a16.9,16.9,0,0,0-.838,1.606A2.162,2.162,0,0,1,202.17,21a2.656,2.656,0,0,0-1.187,1.048,9.673,9.673,0,0,1-.908,1.327q-.7.838-1.4,1.816l-1.4,1.956a9.053,9.053,0,0,0-.489,1.187,4.4,4.4,0,0,1-.489,1.048A9.481,9.481,0,0,1,194.7,31.34,9.48,9.48,0,0,0,193.09,33.3q-.7.7-1.327,1.257a7.191,7.191,0,0,0-1.187,1.4,3.091,3.091,0,0,1-.978,1.257,8.027,8.027,0,0,0-1.257,1.257l-.419.419a2.452,2.452,0,0,1-1.187,1.746q-.908.489-1.886,1.048-.838-.838-.838-1.048t.978-.908a4.578,4.578,0,0,0,.559-.7,2.494,2.494,0,0,1,.7-.7q.419-.419.908-.838t1.048-.838a16.577,16.577,0,0,1,1.537-1.606,16.578,16.578,0,0,0,1.537-1.606q.7-.838,1.327-1.606t1.327-1.606q.7-1.118,1.257-2.165a18.292,18.292,0,0,1,1.257-2.026,8.026,8.026,0,0,1,1.257-1.257,17.015,17.015,0,0,0,1.4-1.257l-.419-.279a2.71,2.71,0,0,0,.21-.838q.07-.559.21-.559,1.537,0,1.4-.908a3.03,3.03,0,0,1,.14-1.606,2.251,2.251,0,0,0,.279-.978.285.285,0,0,1,.21.07.285.285,0,0,0,.21.07,3.388,3.388,0,0,1-.419-.489,3.384,3.384,0,0,0-.419-.489q-2.375,3.353-4.749,6.565a64.484,64.484,0,0,1-5.169,6.146l-.279-.279a1.236,1.236,0,0,0,.349-.559,1.236,1.236,0,0,1,.349-.559q1.537-1.956,3-3.841t3-3.841q1.118-1.676,1.956-3.213a5.461,5.461,0,0,1,.768-1.327q.489-.629.908-1.187L201.75,14.3l.838.838q.279.279.7.629t.7.629a3.237,3.237,0,0,0,.07.629A3.237,3.237,0,0,1,204.125,17.651ZM181.356,42.934a3.394,3.394,0,0,1,1.467-1.048,2.549,2.549,0,0,1,2.165.349l-2.375,2.375q-1.537,1.537-2.864,2.933t-2.724,2.794a1.217,1.217,0,0,1-.629.349,1.217,1.217,0,0,0-.629.349,5.247,5.247,0,0,0-.489.559,5.244,5.244,0,0,1-.489.559l-1.257,1.257q0-.14-.419.279a9.4,9.4,0,0,1-3,3.562,27.046,27.046,0,0,0-3.562,3q-1.676,1.537-3.492,3.143t-3.632,3.143a4.563,4.563,0,0,0-.489.279,4.567,4.567,0,0,1-.489.279q-.838.419-2.235,1.257t-2.864,1.816q-1.467.978-2.864,1.886t-2.1,1.327a11.791,11.791,0,0,1-3.213,1.676,21.231,21.231,0,0,1-3.492.838,23.852,23.852,0,0,1-3.632.279,5.183,5.183,0,0,1-3.353-1.257q-1.118-.838-1.816.279-.419.978-1.187.978a9.777,9.777,0,0,1-1.606-.14,2.971,2.971,0,0,1-1.467-.349,1.806,1.806,0,0,1-.768-1.467.285.285,0,0,0-.21.07.285.285,0,0,1-.21.07,3.238,3.238,0,0,1-.07.629,4.789,4.789,0,0,0-.07.908,8.9,8.9,0,0,1-1.118-1.327q-.419-.629-.978-1.327a1056757021328.2,1056757021328.2,0,0,0-.279-.559v-.14l-.419-.838a8.707,8.707,0,0,0-2.1-3.911,2.131,2.131,0,0,1-.768-1.048q-.21-.629-.489-1.327-.419-.7-.908-1.4t-.908-1.4a6.16,6.16,0,0,1-.629-1.4q-.21-.7-.489-1.537-.559-1.956-.908-3.841a11.8,11.8,0,0,1-.07-3.841q.14-1.4.349-2.654t.349-2.654a.569.569,0,0,0,.14-.419,9.849,9.849,0,0,1,.7-4.4q.838-2.026,1.537-3.981a1.31,1.31,0,0,1,.838-.7q-1.257-1.676.838-2.375a1.207,1.207,0,0,0,.419-.838,1.563,1.563,0,0,1,.838-2.1l.279-1.118a4.11,4.11,0,0,0,1.048-.419q.489-.279-.21-1.4-.14-.14.349-.768a4.143,4.143,0,0,1,.908-.908,3.386,3.386,0,0,1,.489-.419q.21-.14-.07-.559l1.257-.838a6.772,6.772,0,0,0-.838-.978q1.956,0,1.257-1.118a14.44,14.44,0,0,0,1.187-1.327q.489-.629,1.048-1.327.279-.559.629-1.118a7.914,7.914,0,0,0,.629-1.257.285.285,0,0,0,.21-.07.285.285,0,0,1,.21-.07,6.183,6.183,0,0,0,1.816-1.048q.279-.349,0-1.746a1.386,1.386,0,0,1,.629-.14,1.386,1.386,0,0,0,.629-.14,7.621,7.621,0,0,1-.559-.629q-.279-.349-.559-.768,2.1-2.654,4.61-5.867a10.278,10.278,0,0,1-.419,1.118.285.285,0,0,1,.21.07.285.285,0,0,0,.21.07l.559-.838q.279-.419.7-1.118,1.118-.279.838-1.816-.14-.838.978-1.956a4.942,4.942,0,0,1,2.235-1.4h.559q-.419-1.257.349-1.816A4.311,4.311,0,0,0,145.6-1.068a20.1,20.1,0,0,1,2.514-3.073q1.4-1.4,2.794-2.933a31.929,31.929,0,0,1,3-3.143,15.257,15.257,0,0,0,2.724-3.283,22.008,22.008,0,0,1,3.073-3.7q1.676-1.606,3.632-3.143a2.659,2.659,0,0,1,.7-.489,7.8,7.8,0,0,0,.838-.489.992.992,0,0,1,.838-.14l3.772,1.676a.62.62,0,0,1,.279.07.62.62,0,0,0,.279.07q.7.279,1.257.559a2.458,2.458,0,0,1,.978.978,4.864,4.864,0,0,0,.978.978,7.34,7.34,0,0,0,1.118.7,6.4,6.4,0,0,1,2.235,2.235q.7,1.257,1.4,2.794a.4.4,0,0,0,.14.279,7.39,7.39,0,0,1,.349,1.816,6.036,6.036,0,0,0,.489,1.956,17.219,17.219,0,0,1,1.048,2.933,13.65,13.65,0,0,0,1.048,2.794,3.924,3.924,0,0,1,.14,3.073,4.365,4.365,0,0,0,0,3.073.679.679,0,0,1-.14.349,4.568,4.568,0,0,0-.279.489q1.257.838.7,1.606a5.9,5.9,0,0,0-.838,1.606q-.14.838-.279,1.606a11.727,11.727,0,0,1-.419,1.606,5.107,5.107,0,0,0-.349,1.327,1.822,1.822,0,0,1-.768,1.187.868.868,0,0,0-.279.629,1.386,1.386,0,0,1-.14.629,24.657,24.657,0,0,1-1.537,2.654,26.032,26.032,0,0,1-2.654,3.911l-1.676,2.514q-.838,1.257-1.676,2.375a13.377,13.377,0,0,1-1.467,1.956,13.38,13.38,0,0,0-1.467,1.956,6.618,6.618,0,0,0-.978,1.816,1.31,1.31,0,0,1-.7.838,5.369,5.369,0,0,0-2.165,1.886,20.009,20.009,0,0,1-1.746,2.3,13.3,13.3,0,0,1-1.676,1.4q-.978.7-1.816,1.4-.7.559-1.327,1.118t-1.327,1.118a15.035,15.035,0,0,1-1.746,1.257q-.908.559-1.886,1.257a.569.569,0,0,0-.419.14,12.013,12.013,0,0,1-4.191,2.165q-2.235.629-4.47,1.327a4.434,4.434,0,0,1-1.257.279h-.14a28.419,28.419,0,0,1-4.889.559,18.83,18.83,0,0,1-4.889-.279l-.14-.14-.838.419a2,2,0,0,1-1.257,2.235.625.625,0,0,0-.349.419,2.729,2.729,0,0,1-.21.559,1.376,1.376,0,0,0-.349.489,1.376,1.376,0,0,1-.349.489q-.7.7-.21.908a2.427,2.427,0,0,1,.768.489,7.962,7.962,0,0,0-.419,1.4l-.279,1.4a1.512,1.512,0,0,1-.559.7,2.2,2.2,0,0,0-.279,2.933,1.353,1.353,0,0,1-.14,1.537,1.192,1.192,0,0,0,.279,1.676q.419.14.7,1.118l.419.838a13.9,13.9,0,0,1,.21,1.467,3.425,3.425,0,0,0,.489,1.467,3.482,3.482,0,0,0,2.375,1.537,15.762,15.762,0,0,0,6.286-.489,20.048,20.048,0,0,0,5.867-2.445q1.257-.838,3.073-2.026t3.772-2.514q1.956-1.327,3.7-2.654t3-2.165q3.073-2.375,6.007-4.889l5.867-5.029q2.514-2.235,4.889-4.47t4.749-4.61q2.1-1.816,4.121-3.632t3.981-3.772a4.865,4.865,0,0,0,.978-.978l.838-1.118a1.094,1.094,0,0,0,.279.21.756.756,0,0,1,.279.349q-3.353,3.632-6.775,7.124t-6.635,6.985q-.279.419-.489.768a3.247,3.247,0,0,1-.489.629q-.838.978-1.746,1.886L172,50.338a1.094,1.094,0,0,1-.279.21,1.094,1.094,0,0,0-.279.21.756.756,0,0,0-.349.279,1.988,1.988,0,0,1-.349.419,1.716,1.716,0,0,1,.629.14.74.74,0,0,0,.629,0,5.024,5.024,0,0,0,.768-.629,5.025,5.025,0,0,1,.768-.629q2.1-1.676,4.051-3.492A50.158,50.158,0,0,0,181.356,42.934ZM129.67,31.48a2.96,2.96,0,0,1,1.257-1.118q.838-.419.419-1.676a1.455,1.455,0,0,0-.838.14,6.383,6.383,0,0,0-.908,1.118q-.349.559-.768,1.118-.419.419.14.419Q129.251,31.9,129.67,31.48Zm1.537,4.191q.838-1.118,1.537-2.026t1.537-2.026a3.358,3.358,0,0,0-2.235,1.327A3.615,3.615,0,0,0,131.207,35.671Zm24.027,1.956a1.491,1.491,0,0,0,.349-.908,8.989,8.989,0,0,1,.21-1.187,1.537,1.537,0,0,0-1.537,1.118,5.551,5.551,0,0,1-.7.838,5.551,5.551,0,0,0-.7.838l-1.676,1.257L151.6,40q.978-.559,1.886-1.118A15.034,15.034,0,0,0,155.234,37.626Zm1.956-2.375q.279,0,.559-.559a.175.175,0,0,0,0-.279.4.4,0,0,0-.279-.14.775.775,0,0,0-.978.14,1.376,1.376,0,0,0-.349.489,1.376,1.376,0,0,1-.349.489A4.9,4.9,0,0,0,157.189,35.252ZM147.83,23.1q-.978,1.257-1.816,2.584T144.2,28.267a1.625,1.625,0,0,1-.419.279q-.279.14-.419,0-.7-.14-.838.21a7.252,7.252,0,0,0-.279.908,4.434,4.434,0,0,1-.279,1.257q-.279.559-.559,1.048t-.559,1.048l-.7.7a5.55,5.55,0,0,1-.7.838,3.729,3.729,0,0,0-.7.978,23.912,23.912,0,0,0-1.187,2.794,6.02,6.02,0,0,1-1.746,2.514l-.279.279-1.816,2.654a10.966,10.966,0,0,1,2.375.279,4.1,4.1,0,0,0,2.375-.14,9.9,9.9,0,0,1,1.257-.419,9.9,9.9,0,0,0,1.257-.419l1.257-.21a3.571,3.571,0,0,0,.978-.349,3.223,3.223,0,0,1,.908-.419,6.133,6.133,0,0,0,1.048-.419.8.8,0,0,0,.559-.279l4.191-2.933q.7-.419,1.4-.768a7.913,7.913,0,0,0,1.4-.908,28.213,28.213,0,0,0,3.562-3,21.332,21.332,0,0,0,2.864-3.562l.559-.559q.978-1.118,1.886-2.235t1.746-2.235l2.235-2.794,2.235-2.794a.948.948,0,0,0,.279-.7,2.482,2.482,0,0,0,.21-.7,1.251,1.251,0,0,1,.349-.7,53.767,53.767,0,0,0,3.632-6.845,28.2,28.2,0,0,0,2.1-7.543,11.312,11.312,0,0,0,.21-2.794q-.07-1.4-.07-2.794a1.647,1.647,0,0,0-.21-.7q-.21-.419-.489-.419a1.737,1.737,0,0,0-1.257.559l-1.118,1.118a6.4,6.4,0,0,1-1.118.978q-.559.559-1.048.978t-1.048.838a10.05,10.05,0,0,0-1.537,1.257A7.884,7.884,0,0,1,165.012,3.4a7.223,7.223,0,0,0-1.956,1.816,19.533,19.533,0,0,1-1.816,2.1,5.488,5.488,0,0,1-.978.768q-.559.349-1.118.629a3.975,3.975,0,0,0-.7.838,14.63,14.63,0,0,0-1.187,1.956,14.628,14.628,0,0,1-1.187,1.956,15.005,15.005,0,0,1-1.606,1.886l-1.746,1.746a29.163,29.163,0,0,0-2.1,2.654A5.123,5.123,0,0,1,147.83,21.7a3.925,3.925,0,0,0,.07.768A.952.952,0,0,1,147.83,23.1ZM144.478,6.2q-.279.279-.629.7t-.629.7a.569.569,0,0,0,.14.419,1.24,1.24,0,0,1,.559-.14.447.447,0,0,0,.419-.279.869.869,0,0,0,.279-.629,1.386,1.386,0,0,1,.14-.629A.4.4,0,0,0,144.478,6.2Zm-2.514,2.1a2.57,2.57,0,0,0-.629.489l-.629.629a8.5,8.5,0,0,0,1.257.978.247.247,0,0,0,.279.279q.279-.419.489-.768t.489-.908a1.625,1.625,0,0,0-.419-.279,4.568,4.568,0,0,1-.489-.279A.679.679,0,0,0,141.963,8.291Zm-1.118,2.1q-1.4-.14-2.235,1.537a13.671,13.671,0,0,1,1.4.838,2.73,2.73,0,0,1-.21-.559q-.07-.279-.21-.7a2.3,2.3,0,0,1,.559.07.788.788,0,0,0,.559-.07q.279,0,.838-.559a.636.636,0,0,1-.349-.349A.323.323,0,0,0,140.846,10.387ZM122.546,41.4q0-.14.07-.14t.07-.14a10.84,10.84,0,0,0-.559-1.4.569.569,0,0,0-.419-.14,1.24,1.24,0,0,1-.14.559.594.594,0,0,0,0,.559Q121.568,40.839,122.546,41.4Zm-.559-2.375q.559-.279,1.048-.559t1.187-.7q-1.118-1.118.279-2.235a.417.417,0,0,0,.07-.419.788.788,0,0,1,.07-.559.285.285,0,0,1-.21-.07.285.285,0,0,0-.21-.07q-.7,1.118-1.257,2.165t-1.257,2.165Zm2.235,12.293a1.324,1.324,0,0,0,.489-1.048,2.43,2.43,0,0,0-.21-1.327,7.666,7.666,0,0,0-.419.978,7.664,7.664,0,0,1-.419.978.62.62,0,0,0,.07.279.62.62,0,0,1,.07.279Q124.222,51.456,124.222,51.316Zm0-17.88a2.659,2.659,0,0,0,.7.489,7.806,7.806,0,0,1,.838.489,7.809,7.809,0,0,0,.489-.838,4.782,4.782,0,0,0,.349-.978,1.317,1.317,0,0,0,.07-.768,6.449,6.449,0,0,1-.07-.908,1.616,1.616,0,0,1,.349.21,1.617,1.617,0,0,0,.349.21,14.437,14.437,0,0,0,1.187-1.327q.489-.629,1.048-1.327a1.617,1.617,0,0,1,.21-.349,1.616,1.616,0,0,0,.21-.349q0-.14-.21-.279t-.349,0a1.144,1.144,0,0,0-.7.419,3.834,3.834,0,0,0-.21.489,3.829,3.829,0,0,1-.21.489q-.14,0-.419-.279.279-.559.629-1.118a2.24,2.24,0,0,1,.908-.838,4.693,4.693,0,0,0,1.467-.838q.21-.279-.489-1.537l.838-.419q.559-.279,1.187-.559a1.54,1.54,0,0,0,.768-.559,2.278,2.278,0,0,1,.978-1.886,7.536,7.536,0,0,0,1.537-1.187q-.279-1.4-.419-1.816a7.884,7.884,0,0,0,1.676-1.257,4.864,4.864,0,0,0,.978-.978l.838-1.118q.978-1.118-.559-1.816a51.516,51.516,0,0,0-7.683,9.778Q127.3,27.988,124.222,33.436Zm1.4,13.829a20.423,20.423,0,0,0,1.187-2.514,20.423,20.423,0,0,1,1.187-2.514.247.247,0,0,1-.279-.279q-.559.279-.559.559a7.261,7.261,0,0,1-.768,1.606,17.9,17.9,0,0,0-.908,1.606,2.978,2.978,0,0,0-.279,1.537ZM233.181,1.586q-.978.838-1.746,1.4a12.332,12.332,0,0,0-1.467,1.257,3.248,3.248,0,0,0-.489.629,3.247,3.247,0,0,1-.489.629q-1.537,1.816-3.143,3.632T222.7,12.761a2.235,2.235,0,0,1-.768.7,3.648,3.648,0,0,0-.768.559q-.838.838-1.606,1.746t-1.606,1.746a8.116,8.116,0,0,1-1.816,1.537q-.7,1.118-1.537,2.375l-1.676,2.514q-1.537,2.375-3,4.54t-3,4.54a3.934,3.934,0,0,0-.349,3.143,5.862,5.862,0,0,0,1.746,2.724A12.21,12.21,0,0,1,211.11,41.4a37.5,37.5,0,0,0,4.47,4.54,59.613,59.613,0,0,0,5.029,3.841q3.492,2.235,6.915,4.4t6.775,4.4q2.375,1.537,4.61,3.213t4.33,3.492a8.815,8.815,0,0,1,1.816,2.165q.7,1.187,1.4,2.3.419.419.14.7a12.335,12.335,0,0,0-1.257,1.467,2.927,2.927,0,0,1-1.257,1.048,39.2,39.2,0,0,1-4.47,1.118A24.965,24.965,0,0,1,235,74.5a11.922,11.922,0,0,0-3.353.489,4.132,4.132,0,0,1-3.353-.489.854.854,0,0,0-.768-.21,6.448,6.448,0,0,1-.908.07l-10.9.838q-1.4.14-2.724.21a17.9,17.9,0,0,1-2.724-.07,14.588,14.588,0,0,1-2.3-.489q-1.187-.349-2.3-.629a2.552,2.552,0,0,0-1.257-.21,3.946,3.946,0,0,1-1.257-.07q-1.118-.14-2.165-.279a19.636,19.636,0,0,1-2.165-.419.809.809,0,0,1-.559-.14,11,11,0,0,0-4.4-2.1,11,11,0,0,1-4.4-2.1q-1.816-1.257-3.562-2.375t-3.7-2.235a9.05,9.05,0,0,1-2.235-1.746,7.321,7.321,0,0,1-1.537-2.724q.7.419,1.4.768t1.4.629a23.006,23.006,0,0,0,2.584.419,23.006,23.006,0,0,1,2.584.419q2.375.279,4.61.489t4.61.489q4.33.14,8.661,0,3.492-.279,6.915-.768t7.054-.908a13.812,13.812,0,0,1,1.956-.14,16.946,16.946,0,0,0,2.1-.14,2.482,2.482,0,0,1,.7-.21,5.774,5.774,0,0,0,1.118-.349,8.166,8.166,0,0,1-.838-.7,4.577,4.577,0,0,0-.7-.559q-2.375-1.956-4.749-3.841T213.065,51.6q-2.235-1.956-4.4-3.841a23.916,23.916,0,0,1-3.841-4.261,32.752,32.752,0,0,0-3-3.632,6.985,6.985,0,0,1-1.886-4.191,2.833,2.833,0,0,0-.7-1.327,2.833,2.833,0,0,1-.7-1.327,22.584,22.584,0,0,1-.978-4.261,15.416,15.416,0,0,0-1.118-4.121,4.968,4.968,0,0,1-.07-3.911,18.707,18.707,0,0,1,1.886-3.213q1.257-1.816,2.584-3.562t2.724-3.562a28.7,28.7,0,0,1,2.375-2.864Q207.2,6.2,208.456,4.659l2.235-3.073a36.275,36.275,0,0,1,2.375-2.933L228.571-18.11q1.117-1.257,2.3-2.514t2.3-2.375a4.747,4.747,0,0,1,6.007-.7,17.9,17.9,0,0,1,1.606.908q.768.489,1.606,1.048a.8.8,0,0,0,.559.279,6.212,6.212,0,0,1,4.889,1.327,17.385,17.385,0,0,1,3.213,3.841,32.912,32.912,0,0,1,1.676,2.933,1.273,1.273,0,0,1-.14.978,6.382,6.382,0,0,1-.629,1.956,2.039,2.039,0,0,0,.21,2.1l-.279.7a13.35,13.35,0,0,0-1.606,3.772A19.11,19.11,0,0,1,248.826.05a7.663,7.663,0,0,0-.419.978q-.14.419-.838.419-.419,0-.419.7-1.117,2.375-2.165,4.889t-2.165,5.029q-.838,1.956-1.606,3.911t-1.467,3.911a3.729,3.729,0,0,1-.7.978,4.055,4.055,0,0,0-1.816,2.026,26.459,26.459,0,0,1-1.257,2.584q-.559,1.257-1.048,2.584a13.217,13.217,0,0,1-1.187,2.445,23.977,23.977,0,0,0-1.327,2.445q-.629,1.327-1.187,2.584l-.838,1.956a3.209,3.209,0,0,0-.14,2.1q.279,1.4-1.4.7a6.654,6.654,0,0,1-2.864-2.1,7.636,7.636,0,0,1-1.257-2.724,10.788,10.788,0,0,1-.279-3q.07-1.537.21-3.213a32.7,32.7,0,0,1,1.257-6.635q.978-3.283,2.235-6.5,1.257-2.794,2.3-5.588t2.165-5.588a3.913,3.913,0,0,0,.279-1.467A8.017,8.017,0,0,1,233.181,1.586Zm67.331,0q-.978.838-1.746,1.4A12.337,12.337,0,0,0,297.3,4.24a3.251,3.251,0,0,0-.489.629,3.248,3.248,0,0,1-.489.629q-1.537,1.816-3.143,3.632t-3.143,3.632a2.235,2.235,0,0,1-.768.7,3.648,3.648,0,0,0-.768.559q-.838.838-1.606,1.746t-1.606,1.746a8.117,8.117,0,0,1-1.816,1.537q-.7,1.118-1.537,2.375l-1.676,2.514q-1.537,2.375-3,4.54t-3,4.54a3.935,3.935,0,0,0-.349,3.143,5.862,5.862,0,0,0,1.746,2.724A12.211,12.211,0,0,1,278.44,41.4a37.505,37.505,0,0,0,4.47,4.54,59.614,59.614,0,0,0,5.029,3.841q3.492,2.235,6.915,4.4t6.775,4.4q2.375,1.537,4.61,3.213t4.33,3.492a8.816,8.816,0,0,1,1.816,2.165q.7,1.187,1.4,2.3.419.419.14.7a12.332,12.332,0,0,0-1.257,1.467,2.927,2.927,0,0,1-1.257,1.048,39.2,39.2,0,0,1-4.47,1.118,24.965,24.965,0,0,1-4.61.419,11.922,11.922,0,0,0-3.353.489,4.132,4.132,0,0,1-3.353-.489.854.854,0,0,0-.768-.21,6.448,6.448,0,0,1-.908.07l-10.9.838q-1.4.14-2.724.21a17.9,17.9,0,0,1-2.724-.07,14.589,14.589,0,0,1-2.3-.489q-1.187-.349-2.3-.629a2.552,2.552,0,0,0-1.257-.21,3.946,3.946,0,0,1-1.257-.07q-1.117-.14-2.165-.279a19.638,19.638,0,0,1-2.165-.419.809.809,0,0,1-.559-.14,11,11,0,0,0-4.4-2.1,11,11,0,0,1-4.4-2.1q-1.816-1.257-3.562-2.375t-3.7-2.235a9.05,9.05,0,0,1-2.235-1.746,7.321,7.321,0,0,1-1.537-2.724q.7.419,1.4.768t1.4.629a23.007,23.007,0,0,0,2.584.419,23.007,23.007,0,0,1,2.584.419q2.375.279,4.61.489t4.61.489q4.33.14,8.661,0,3.492-.279,6.915-.768t7.054-.908a13.811,13.811,0,0,1,1.956-.14,16.945,16.945,0,0,0,2.1-.14,2.482,2.482,0,0,1,.7-.21,5.774,5.774,0,0,0,1.118-.349,8.168,8.168,0,0,1-.838-.7,4.577,4.577,0,0,0-.7-.559q-2.375-1.956-4.749-3.841T280.4,51.6q-2.235-1.956-4.4-3.841a23.914,23.914,0,0,1-3.841-4.261,32.754,32.754,0,0,0-3-3.632,6.985,6.985,0,0,1-1.886-4.191,2.833,2.833,0,0,0-.7-1.327,2.833,2.833,0,0,1-.7-1.327,22.587,22.587,0,0,1-.978-4.261,15.416,15.416,0,0,0-1.117-4.121,4.968,4.968,0,0,1-.07-3.911,18.7,18.7,0,0,1,1.886-3.213q1.257-1.816,2.584-3.562t2.724-3.562a28.7,28.7,0,0,1,2.375-2.864q1.257-1.327,2.514-2.864l2.235-3.073A36.269,36.269,0,0,1,280.4-1.347L295.9-18.11q1.118-1.257,2.3-2.514t2.3-2.375a4.747,4.747,0,0,1,6.007-.7,17.9,17.9,0,0,1,1.606.908q.768.489,1.606,1.048a.8.8,0,0,0,.559.279,6.212,6.212,0,0,1,4.889,1.327,17.384,17.384,0,0,1,3.213,3.841,32.908,32.908,0,0,1,1.676,2.933,1.273,1.273,0,0,1-.14.978,6.383,6.383,0,0,1-.629,1.956,2.039,2.039,0,0,0,.21,2.1l-.279.7a13.349,13.349,0,0,0-1.606,3.772A19.109,19.109,0,0,1,316.157.05a7.664,7.664,0,0,0-.419.978q-.14.419-.838.419-.419,0-.419.7-1.118,2.375-2.165,4.889t-2.165,5.029q-.838,1.956-1.606,3.911t-1.467,3.911a3.73,3.73,0,0,1-.7.978,4.055,4.055,0,0,0-1.816,2.026,26.466,26.466,0,0,1-1.257,2.584q-.559,1.257-1.048,2.584A13.218,13.218,0,0,1,301.07,30.5a23.983,23.983,0,0,0-1.327,2.445q-.629,1.327-1.187,2.584l-.838,1.956a3.209,3.209,0,0,0-.14,2.1q.279,1.4-1.4.7a6.654,6.654,0,0,1-2.864-2.1,7.635,7.635,0,0,1-1.257-2.724,10.787,10.787,0,0,1-.279-3q.07-1.537.21-3.213a32.7,32.7,0,0,1,1.257-6.635q.978-3.283,2.235-6.5,1.257-2.794,2.3-5.588t2.165-5.588a3.912,3.912,0,0,0,.279-1.467A8.017,8.017,0,0,1,300.511,1.586Zm80.741,8.8v0Zm1.956,57.692a4.883,4.883,0,0,0,1.187,2.514,13.4,13.4,0,0,0,1.746,1.606q.838.629,1.257.978t-.419.768a2.043,2.043,0,0,0-1.257.419,2.652,2.652,0,0,1-2.445.419q-1.187-.419-2.3-.838a2.993,2.993,0,0,1-1.676-.978,12.7,12.7,0,0,1-.978-1.4,7.863,7.863,0,0,0-1.606-1.676,5.608,5.608,0,0,1-1.467-1.676,44.059,44.059,0,0,1-3.073-7.683,18.969,18.969,0,0,1-.7-9.359,62.029,62.029,0,0,1,2.375-9.08q1.537-4.889,3.353-9.569t3.911-9.15q1.117-2.235,2.235-4.4t2.235-4.4a.285.285,0,0,1,.07-.21.553.553,0,0,0,.07-.349h-.559l-2.724,2.724q-1.327,1.327-2.584,2.724A20.978,20.978,0,0,0,377.9,21.7a20.978,20.978,0,0,1-1.956,2.235q-1.257,1.4-2.584,2.724t-2.584,2.724q-1.118,1.257-2.165,2.445t-2.165,2.445a14.728,14.728,0,0,1-.838,1.257,10.493,10.493,0,0,1-.978,1.118.948.948,0,0,1-.7.279h-.559a5.355,5.355,0,0,0-.349,1.187,1.314,1.314,0,0,1-.349.768q-1.537,1.956-3.143,3.911t-3.283,3.911l-.14.14a6.155,6.155,0,0,1-1.327,3.073q-1.048,1.257-2.026,2.514a28.319,28.319,0,0,1-2.3,2.794q-1.187,1.257-2.3,2.654a15.474,15.474,0,0,0-1.746,2.445,9.084,9.084,0,0,1-1.886,2.3,3.26,3.26,0,0,0-1.467,1.886,2.324,2.324,0,0,1-1.606,1.606.67.67,0,0,0-.489.21.387.387,0,0,0-.07.489q.279.978-.279,1.4a12.12,12.12,0,0,0-1.257,1.118,16.542,16.542,0,0,0-3.353,4.051A4.259,4.259,0,0,1,332.78,75.2a4.342,4.342,0,0,1-3.492-1.4,9.274,9.274,0,0,1-1.606-1.746,4.831,4.831,0,0,1-.768-2.3q0-.14-.279-.419a5.1,5.1,0,0,1-2.375-2.165q-.838-1.467-1.537-3-.279-.7-.559-1.467a10.111,10.111,0,0,1-.419-1.467A29.057,29.057,0,0,1,322.3,47.4q.838-3.353,1.886-6.565t2.165-6.426a2.447,2.447,0,0,1,.349-.7,3.669,3.669,0,0,0,.349-.559,9.9,9.9,0,0,0,.419-1.257,9.909,9.909,0,0,1,.419-1.257q.419-1.118.978-2.3t1.118-2.3l.838-1.956.838-1.956q.838-1.537,1.606-3t1.606-3q1.537-2.654,2.934-5.238t2.933-5.238Q343.676.748,347.168-4q1.956-2.794,4.051-5.588t4.47-5.588a37.994,37.994,0,0,1,3.283-3.422q1.746-1.606,3.422-3.143a16.769,16.769,0,0,1,7.124,2.933q3.073,2.235,6.007,4.61l3.073,2.514q1.537,1.257,3.073,2.654a4.513,4.513,0,0,1,1.118.908q.419.489.978,1.048Q385.443-5.538,387.189-4t3.422,3.073a4.576,4.576,0,0,0,.7.559,9.133,9.133,0,0,0,.978.559,5.459,5.459,0,0,0-1.118.419v.419q.7.419.978.14.978-.559,1.816-1.048T395.78-.928q.559-.559.978-.279a7.731,7.731,0,0,0,1.956.349q1.118.07,1.4,1.606a1,1,0,0,0,.7.419,3.1,3.1,0,0,1,.978.419,4.279,4.279,0,0,0,.768.419,4.282,4.282,0,0,1,.768.419.636.636,0,0,0,.489.07q.21-.07.489.21.978,1.118,1.956,2.1a19.531,19.531,0,0,1,1.816,2.1,3.993,3.993,0,0,1,.349,2.933,3.576,3.576,0,0,1-1.467,2.514q-.419.419-.419.559a2.151,2.151,0,0,0-.349.838,1.251,1.251,0,0,1-.349.7,16.621,16.621,0,0,0-3.073,4.61,4.256,4.256,0,0,1-.978,1.4,17.013,17.013,0,0,0-1.257,1.4l-1.4,2.235q-.7,1.118-1.257,2.235-1.117,2.1-2.165,4.261a16.339,16.339,0,0,1-2.724,3.981,5.53,5.53,0,0,0-1.118,1.606q-.419.908-.838,1.886a22.246,22.246,0,0,0-1.537,3.492q-.279.978-.489,1.886a7.826,7.826,0,0,1-.629,1.746,7.218,7.218,0,0,1-.7,1.327,1.6,1.6,0,0,0-.14,1.467l-.14.279a1.949,1.949,0,0,0-1.4,2.026,5.3,5.3,0,0,1-.279,2.445,8.947,8.947,0,0,1-.768,1.467,7.265,7.265,0,0,0-.768,1.606q-.419,2.1-.768,4.121a39.835,39.835,0,0,0-.489,4.121q0,1.118.07,2.165T383.208,68.079ZM325.376,52.713q-.978-.419-1.118-.908a1.643,1.643,0,0,1,.07-1.048,11.631,11.631,0,0,1,.489-1.118,1.576,1.576,0,0,0,.14-1.118q-2.375,1.676-1.257,3.772a.9.9,0,0,0,.559.419,1.753,1.753,0,0,1,.7.419Zm.7-7.543q.419-.838.768-1.746t.768-1.886a7.8,7.8,0,0,1-.838.489,2.659,2.659,0,0,0-.7.489,19.961,19.961,0,0,0-1.537,3.213,1.394,1.394,0,0,0-.21.978,8.016,8.016,0,0,1,.07.978.809.809,0,0,0,.559.14q.279-.7.559-1.327T326.075,45.17Zm2.794-6.426a.775.775,0,0,0-.14-.978.94.94,0,0,0-.838-.419,1.179,1.179,0,0,0-.7.978q-.14.419.419.978-.559.419-1.4.978a1.8,1.8,0,0,0,.7.629,2.658,2.658,0,0,1,.7.489,11.609,11.609,0,0,1,.629-1.327A11.6,11.6,0,0,0,328.868,38.744Zm.419-1.816a.8.8,0,0,0,.279-.559.8.8,0,0,1,.279-.559,3.222,3.222,0,0,0,.419-.908,3.222,3.222,0,0,1,.419-.908q.7-1.118,1.4-2.026a12.42,12.42,0,0,0,1.257-2.026q.7-1.956,1.4-3.841a20.934,20.934,0,0,1,1.816-3.7.665.665,0,0,0,.21-.629.665.665,0,0,1,.21-.629,38.016,38.016,0,0,1,2.235-3.492q.279-.559.489-1.048t.489-1.048q-.279-.279-.279-.419a1.235,1.235,0,0,1-.559.349,1.236,1.236,0,0,0-.559.349q-.978,1.4-1.816,2.724t-1.816,2.864a1.125,1.125,0,0,0-.14.489.474.474,0,0,1-.14.349,4,4,0,0,0-1.886,2.375q-.349,1.4-.629,2.794a1.072,1.072,0,0,0-.14.419.4.4,0,0,1-.14.279,12.332,12.332,0,0,0-1.257,1.467,2.168,2.168,0,0,0-.279,1.886q.419.419-.14.419a1.565,1.565,0,0,0-1.257,1.537,2.457,2.457,0,0,1-.7,1.816q-.279.14-.14.629a3.222,3.222,0,0,0,.419.908q0,.14.279.21T329.287,36.928Zm9.22-14.947a5.037,5.037,0,0,0,1.327-1.048q.07-.21-.768-.768l-.279.838Q338.647,21.422,338.507,21.981ZM337.39,32.318q.14-.14,0-.419l-.279-.559a.877.877,0,0,1-.349.21.877.877,0,0,0-.349.21,5.936,5.936,0,0,0-.978,1.537.285.285,0,0,0,.07.21.284.284,0,0,1,.07.21A8.6,8.6,0,0,0,337.39,32.318ZM330.4,45.868a.569.569,0,0,0,.419.14q.279-.7.489-1.257t.489-1.257a.62.62,0,0,1-.279-.07.973.973,0,0,0-.419-.07,5.167,5.167,0,0,0-.349,1.257A5.167,5.167,0,0,1,330.4,45.868Zm23.189-3.353q1.4-.7,2.1-.978-.7-.7-1.048-.559T353.594,42.515Zm2.1-1.676.838-1.257a.47.47,0,0,0-.21-.419,2.287,2.287,0,0,1-.349-.279,3.974,3.974,0,0,0-.7.838Q355.13,39.861,355.689,40.839Zm19.836-18.3a.4.4,0,0,1-.14-.279.62.62,0,0,0-.07-.279.62.62,0,0,1-.07-.279,7.806,7.806,0,0,1-.838.489,7.812,7.812,0,0,0-.838.489,2.451,2.451,0,0,1,.279.7Zm5.029-8.521q2.933-2.794,5.867-5.727t5.867-5.727q-.279-.279-.279-.419-1.956,1.537-3.772,3.073t-3.772,3.073l-1.4,1.4a2.457,2.457,0,0,1-1.816.7q2.235-1.956,4.4-3.841t4.54-3.841q-.7-.279-1.118-.419a3.525,3.525,0,0,1-.838-.419,11.6,11.6,0,0,1-1.327-.629,11.6,11.6,0,0,0-1.327-.629,5.135,5.135,0,0,1-1.048-.7,4.208,4.208,0,0,0-1.187-.7,3.223,3.223,0,0,0-.908-.419,3.222,3.222,0,0,1-.908-.419,39.956,39.956,0,0,1-3.283-2.445,39.955,39.955,0,0,0-3.283-2.445,1.392,1.392,0,0,0-1.4-.279,11.187,11.187,0,0,0-2.934,2.1q-1.956,1.956-3.772,4.051t-3.772,4.191a10.491,10.491,0,0,1-1.118.978,6.322,6.322,0,0,0-1.117,1.118,6.106,6.106,0,0,1-1.676,1.606,4.18,4.18,0,0,0-1.537,1.886,6.975,6.975,0,0,1-1.257,2.1,17.318,17.318,0,0,0-1.537,2.1l-.279.14q-.7,1.118-1.327,2.026t-1.327,1.886a3.526,3.526,0,0,0-.419.838,3.524,3.524,0,0,1-.419.838q-1.257,2.1-2.654,4.121a35.291,35.291,0,0,0-2.514,4.261,45.969,45.969,0,0,0-2.445,4.749q-1.048,2.375-2.165,4.889-1.4,3.073-2.654,6.077t-2.654,6.077l-.559,1.676a1.5,1.5,0,0,1-1.4.978,2.05,2.05,0,0,0,.14.768.542.542,0,0,1-.14.629,4.788,4.788,0,0,0-1.187,2.375q-.21,1.257-.349,2.654a1.386,1.386,0,0,0-.14.629,1.386,1.386,0,0,1-.14.629,10.641,10.641,0,0,0-.629,3.213,14.537,14.537,0,0,0,.21,3.213,4.9,4.9,0,0,0,.559,1.4,309.246,309.246,0,0,1,20.395-26.192q10.756-12.363,22.211-24.236a13.378,13.378,0,0,1-1.467,1.956,19.194,19.194,0,0,0-1.467,1.816q-1.257,1.4-2.445,2.654t-2.3,2.654a13.95,13.95,0,0,0-1.257,1.4,4.576,4.576,0,0,0-.559.7l-.559.838a1.625,1.625,0,0,1-.419.279q-.279.14-.279.279.279.978-.14,1.118a9.665,9.665,0,0,1-1.118.279,3.25,3.25,0,0,0-.838.559q-.838.978-1.606,1.886T358.9,35.391a1.24,1.24,0,0,0-.14.559v.559l-.838.559-.838.559a.886.886,0,0,0-.21.419.417.417,0,0,0,.07.419,2.29,2.29,0,0,0,.349.279q.21.14.349,0a1.372,1.372,0,0,0,1.257-.7q.838-.838,1.606-1.746t1.606-1.886a5.548,5.548,0,0,1,.7-.838,2.2,2.2,0,0,0,.559-.838q.14-1.257,1.257-.978.7,0,1.118-.978a8.124,8.124,0,0,1,1.676-2.654l2.235-2.235,2.235-2.235a2.715,2.715,0,0,0,.629-.978,11.639,11.639,0,0,1,.489-1.118,1.754,1.754,0,0,1,.7-.419,1.753,1.753,0,0,0,.7-.419,4.865,4.865,0,0,0,.978-.978l.838-1.118a9.765,9.765,0,0,1,.908-1.048,4.036,4.036,0,0,0,.768-1.048,3.336,3.336,0,0,1,1.327-1.187,2.14,2.14,0,0,1,1.746-.21q1.4.838,2.375-.838a12.029,12.029,0,0,0-1.327.07q-.629.07-1.327.21a.62.62,0,0,0-.07-.279A.62.62,0,0,1,380.554,14.019Zm121.67-1.537a23,23,0,0,1,.349,3.073,13.661,13.661,0,0,1-.21,3.073q-.419,2.235-.978,4.47t-1.257,4.47a2,2,0,0,0,0,1.048,1.046,1.046,0,0,1-.14.908q-.559,1.956-1.118,3.7t-1.257,3.562a3.575,3.575,0,0,0-.279,1.327v1.327a26.814,26.814,0,0,1-3.353,11.175A2.619,2.619,0,0,0,493.7,51.8v1.187a7.659,7.659,0,0,1-.419.978,8.657,8.657,0,0,1-.559,1.676,4.571,4.571,0,0,1-.279.489,4.562,4.562,0,0,0-.279.489q-.838,1.118-1.676,2.3a3.049,3.049,0,0,0-.279,2.864,19.19,19.19,0,0,0-1.816,1.467q-.838.768-1.816,1.606l1.048.419a4.282,4.282,0,0,1,.768.419q-.7,1.118-1.187,2.1t-1.187,2.1q1.117,1.257.349,1.816a5.421,5.421,0,0,1-2.025.838,2.278,2.278,0,0,1,.908,2.026A1.9,1.9,0,0,1,484.2,75.9a5.7,5.7,0,0,0-2.026,2.3,4.444,4.444,0,0,0,.21,3.143v.14a.123.123,0,0,1-.14.14q-.7.14-1.4.21t-1.4.21v.559q.279.14.629.349a7.747,7.747,0,0,0,1.048.489q-.838.7-1.676,1.467a19.183,19.183,0,0,1-1.816,1.467q.7,1.118,1.4.559a5.557,5.557,0,0,1,1.4-.838,1.094,1.094,0,0,1,.21.279,1.094,1.094,0,0,0,.21.279l-.629.629a1.068,1.068,0,0,1-.768.349,4.906,4.906,0,0,0-1.467.629,2.522,2.522,0,0,0-.768,1.467,4.33,4.33,0,0,1-1.187,2.026,18.866,18.866,0,0,0-1.746,2.026q.7.279,1.118.419a5.418,5.418,0,0,1,.7.279.809.809,0,0,1,.14.559q-.978.419-2.1.838a5.013,5.013,0,0,0-1.816,1.118,4.383,4.383,0,0,0-1.048,1.746q-.349,1.048-.908,2.3-.279.14-.908.419t-1.467.559q.7.7,1.187,1.257t1.048,1.118q-1.676,2.235-3.422,4.4t-3.562,4.4h2.514q-.838.838-1.467,1.537t-1.327,1.4q.419,1.956-2.235,2.375a1.858,1.858,0,0,0-1.118.419,3.556,3.556,0,0,0-.838.838q-.419.559-.768,1.118a3.612,3.612,0,0,1-.908.978q-.279.838-.629,1.746t-.629,1.886a9.907,9.907,0,0,0-1.257-.419l-1.118-.279a10.216,10.216,0,0,1-.07,1.257,8.994,8.994,0,0,0-.07,1.118.285.285,0,0,1-.07.21.284.284,0,0,0-.07.21,3.152,3.152,0,0,1,.349,2.026,2.329,2.329,0,0,1-.838,1.257,4.878,4.878,0,0,1-1.467.768,4.894,4.894,0,0,0-1.4.7l-1.676,1.118a1.419,1.419,0,0,0-.419,1.816,4.592,4.592,0,0,1-1.118.14,1.138,1.138,0,0,0-.838.279,24.972,24.972,0,0,1-4.61,4.54,62.022,62.022,0,0,1-5.308,3.562,10.083,10.083,0,0,0-1.956,1.257,2.789,2.789,0,0,1-2.375.419,2.283,2.283,0,0,0-1.676.419,3,3,0,0,1-1.676.559q-2.235.14-4.47.21a12.365,12.365,0,0,1-4.33-.629,17.18,17.18,0,0,0-4.191-.908,7.9,7.9,0,0,1-4.191-1.746,5.282,5.282,0,0,0-2.235-.908,6.443,6.443,0,0,1-2.375-.908,31.634,31.634,0,0,1-10.477-7.962,23.39,23.39,0,0,1-6.007-12.572,10.618,10.618,0,0,1-.419-1.746q-.14-.908-.419-2.165a34.275,34.275,0,0,1,3.073,3.772q1.257,1.816,2.375,3.772a31.613,31.613,0,0,0,3.562,4.749q2.026,2.235,3.981,4.47a3.061,3.061,0,0,0,1.606.768,9.712,9.712,0,0,0,1.886.21,27.285,27.285,0,0,0,7.054-.629,31.15,31.15,0,0,0,6.635-2.3,43.3,43.3,0,0,0,4.4-2.375,44.02,44.02,0,0,0,3.981-2.794q2.235-1.676,4.261-3.492t3.981-3.632a7.2,7.2,0,0,0,.768-.908q.349-.489.629-.908.838-.978,1.676-1.886a19.433,19.433,0,0,0,1.537-1.886q2.375-3.213,4.749-6.356t4.47-6.5q2.514-4.051,4.749-8.172t4.61-8.312q1.118-1.956,2.165-3.981t2.026-3.981q1.956-4.33,3.841-8.591t3.562-8.591q1.537-4.191,3-8.451t2.724-8.591q1.117-4.051,2.1-8.172t1.956-8.172q.7-3.353,1.257-6.705t1.257-6.705a2.855,2.855,0,0,0,0-1.257,5.194,5.194,0,0,1-.14-1.257.8.8,0,0,0-.559-.279L476.8,15.416a16.038,16.038,0,0,1-1.537,1.257q-.7.559-1.327,1.048a2.643,2.643,0,0,0-.768,1.886,2.566,2.566,0,0,1-.908,1.746,4.657,4.657,0,0,1-1.746,1.187,2.026,2.026,0,0,0-1.606,1.187A6,6,0,0,1,468,25.334a1.217,1.217,0,0,0-.349.629,1.217,1.217,0,0,1-.349.629A13.055,13.055,0,0,0,463.39,30.5a54.839,54.839,0,0,1-3.213,4.47,37.745,37.745,0,0,1-2.934,3.143q-1.537,1.467-3.073,3.143a24.787,24.787,0,0,0-2.1,2.724q-.978,1.467-2.1,3-.978,1.118-1.956,2.3t-1.956,2.445q-1.118,1.537-2.375,3.213t-2.375,3.213q-1.117,1.537-2.375,3t-2.514,3q-1.537,1.956-3.213,3.772T430,71.711a10.731,10.731,0,0,1-7.683,3.772,6.414,6.414,0,0,0-1.606.489,16.45,16.45,0,0,1-1.606.629,4.209,4.209,0,0,0-1.187.7,1.762,1.762,0,0,1-1.187.419,12.266,12.266,0,0,1-3.772-1.187,17.955,17.955,0,0,1-3.353-2.165,7.154,7.154,0,0,1-1.187-1.187,7.157,7.157,0,0,0-1.187-1.187,11.016,11.016,0,0,1-2.864-4.68,40.562,40.562,0,0,1-1.187-5.238,4.078,4.078,0,0,1,.07-1.676q.21-.838.489-1.676.559-1.816,1.117-3.492A20.76,20.76,0,0,0,405.7,51.6a12.9,12.9,0,0,1,1.886-4.33,18.836,18.836,0,0,0,2.165-4.33,48.427,48.427,0,0,1,2.514-4.889q1.4-2.375,2.654-4.749t2.514-4.68q1.257-2.3,2.654-4.68,1.537-2.375,3.073-4.68t3.073-4.68q.978-1.4,2.025-2.724t2.165-2.724q.419-.7.279-.978a1.955,1.955,0,0,1,.14-2.165,15.368,15.368,0,0,1,1.537-1.467q1.4-1.257,2.794-2.584t2.794-2.584q.279-.279.279-.419a6.571,6.571,0,0,1,.768-2.654,9.666,9.666,0,0,1,1.606-2.1,17.52,17.52,0,0,1,2.026-1.746,11.191,11.191,0,0,0,1.886-1.746,63.644,63.644,0,0,1,5.937-5.238,34.646,34.646,0,0,1,6.775-4.121,11.025,11.025,0,0,1,3.213-.908q1.676-.21,3.353-.489a1.814,1.814,0,0,1,1.257.21,3.935,3.935,0,0,1,.978.629q.7,1.537,1.537,1.676a3.44,3.44,0,0,0,1.676-.14,26.132,26.132,0,0,1,2.514,2.584,7.487,7.487,0,0,0,2.654,2.026,9.343,9.343,0,0,1,2.445,2.165q.908,1.187,1.886,2.584a15.425,15.425,0,0,1,1.187,2.3,23.375,23.375,0,0,0,1.187,2.445,3.788,3.788,0,0,1,.489,2.514A2.032,2.032,0,0,1,480.432.608q-.7.279-1.4.489a2.064,2.064,0,0,1-1.4-.07,1.131,1.131,0,0,1-.629-.838q-.21-.7-.349-1.4-.279-1.118-.489-2.1t-.489-1.956a1.5,1.5,0,0,0-.908-1.048.866.866,0,0,0-1.048.349,15.361,15.361,0,0,1-5.518,3.981,25.128,25.128,0,0,0-5.937,3.562q-3.632,3.073-7.194,6.216a33.9,33.9,0,0,0-6.216,7.334,22.986,22.986,0,0,1-3.632,4.33q-2.1,1.956-4.051,4.051a6.38,6.38,0,0,0-.908,1.118q-.349.559-.768,1.257a25.815,25.815,0,0,1-2.445,3.353q-1.327,1.537-2.724,3.073a8.169,8.169,0,0,0-1.676,3.073,22.763,22.763,0,0,1-1.4,3.492,8.494,8.494,0,0,1-1.327,1.956,8.493,8.493,0,0,0-1.327,1.956,25,25,0,0,0-1.676,3.073,13.9,13.9,0,0,1-1.816,2.933,10.693,10.693,0,0,0-1.746,3.213,4.43,4.43,0,0,1-2.445,2.654q-.14,0-.14.07t-.14.07l-.14.14a1.912,1.912,0,0,1-.419,2.514,3.525,3.525,0,0,0-1.4,2.1,18.846,18.846,0,0,1-.419,2.235,3.748,3.748,0,0,1-1.257,1.956,2.077,2.077,0,0,0-.559,1.537,8.662,8.662,0,0,1-.279,2.1q1.4.14,2.375.21t2.1.07a.67.67,0,0,0,.489-.21l.489-.489q2.375-2.654,4.68-5.308t4.68-5.448q2.235-2.794,4.33-5.448t4.33-5.448q2.235-2.514,4.4-4.959t4.4-4.959a48.662,48.662,0,0,0,3.422-4.121,37.022,37.022,0,0,1,3.562-4.121q3.632-4.051,7.334-8.032t7.613-7.753q3.073-3.073,6.216-5.867T482.947-.23a1.753,1.753,0,0,0,.419-.7,3.527,3.527,0,0,1,.419-.838,7.858,7.858,0,0,0,.489-1.257q.21-.7.629-.7a9.231,9.231,0,0,1,3.911,0,3.072,3.072,0,0,1,1.257.559,2.043,2.043,0,0,0,1.257.419,6.431,6.431,0,0,1,4.121,1.606q1.606,1.467,3,3a9.682,9.682,0,0,1,1.606,2.584q.629,1.467,1.187,3a12.506,12.506,0,0,1,.629,2.445Q502.084,11.225,502.224,12.482ZM436.849,5.777q-2.654-.279-3.073,3.492.7-.838,1.467-1.676T436.849,5.777ZM420.365,39.163a4.585,4.585,0,0,1,1.048-1.4q.629-.559,1.257-1.187a4.5,4.5,0,0,0,.978-1.467,2.979,2.979,0,0,0-.07-2.1,2.45,2.45,0,0,1-.7-.279q-.838,1.537-1.606,3t-1.606,3A3.234,3.234,0,0,0,420.365,39.163Zm12.293-27.938a3.985,3.985,0,0,0-2.165.768,5.4,5.4,0,0,0-1.257,1.467,12.027,12.027,0,0,0-.838,1.746,8.906,8.906,0,0,1-.908,1.746,1.1,1.1,0,0,0,.279.21,1.1,1.1,0,0,1,.279.21q1.117-1.537,2.3-3.073T432.658,11.225Zm-19.277,28.5a.854.854,0,0,0-.21.768,1.96,1.96,0,0,1-.07.908,1.072,1.072,0,0,0,.419.14,1.072,1.072,0,0,1,.419.14l.559-.838.559-.838,1.676-3.632q.838-1.816,1.816-3.492.7-1.4,1.467-2.654t1.606-2.514q.7-1.4,1.537-2.724T424.7,22.4q.7-1.118,1.4-2.1t1.4-2.1a3.25,3.25,0,0,1-.838-.559,71.1,71.1,0,0,0-7.124,10.686Q416.454,33.994,413.381,39.722ZM410.168,58.44a3.072,3.072,0,0,0,2.026-1.746,6.279,6.279,0,0,0,.629-3.422,7.923,7.923,0,0,0-1.676,2.375A19.545,19.545,0,0,0,410.168,58.44Zm3.772-5.448,1.118-1.956,1.118-1.956a13.74,13.74,0,0,0,1.118-2.165,13.735,13.735,0,0,1,1.117-2.165,2.188,2.188,0,0,1-.559-.419q-.7.559-1.4,1.048a6.053,6.053,0,0,0-1.257,1.187,3.338,3.338,0,0,0-.7,1.606,7.333,7.333,0,0,1-.419,1.606,5.814,5.814,0,0,0-.768,1.886A1.68,1.68,0,0,0,413.94,52.992Zm41.767,44.98q-.559.559-1.187,1.118t-1.327,1.257q1.537.7,1.816.419A8.777,8.777,0,0,0,455.707,97.972Zm-5.448,8.94a23.269,23.269,0,0,0-1.467,1.886q-.629.908-1.327,1.886a2.188,2.188,0,0,1,.419.559q.978-1.118,1.816-2.1t1.956-2.1a3,3,0,0,1-.768-.14Q450.4,106.773,450.259,106.913Zm-3.353,6.146q-3.213-1.4-3.772.978Q445.091,113.618,446.907,113.059Zm-5.727,2.933q-.14,0-.419.7a.494.494,0,0,0,.559.559,13.646,13.646,0,0,1,1.537-.21,13.641,13.641,0,0,0,1.537-.21.973.973,0,0,0-.07-.419.973.973,0,0,1-.07-.419Zm.279,2.375a5.124,5.124,0,0,0-1.4-.349,1.188,1.188,0,0,0-.978.21,1.674,1.674,0,0,0-.21,1.118q.07.7.07,1.4a9.424,9.424,0,0,1,1.117-.21,5.167,5.167,0,0,0,1.257-.349q.279-.14.629-.349a3.245,3.245,0,0,0,.629-.489,7.632,7.632,0,0,1-.559-.629A.757.757,0,0,0,441.459,118.367Zm-25.7,19.7a36.069,36.069,0,0,0,8.312-2.584,24,24,0,0,0,7.054-4.959q.978-.978,2.025-1.956t2.3-2.1q-.279-1.537.768-2.026a7.206,7.206,0,0,1,2.165-.629q.14-.978.21-1.676t.21-1.4a2.633,2.633,0,0,0-2.933,1.118,24.647,24.647,0,0,1-3.073,3.772,10.052,10.052,0,0,1-1.537,1.257,4.988,4.988,0,0,0-1.4,1.4,4.6,4.6,0,0,1-1.886,1.886q-1.187.629-2.3,1.327a3.671,3.671,0,0,0-.559.349,3.673,3.673,0,0,1-.559.349,16.718,16.718,0,0,1-11.175,4.33,6.888,6.888,0,0,0-1.676.21q-.838.21-1.676.349a1.105,1.105,0,0,0,.14.7q1.4.14,2.794.349A8.051,8.051,0,0,0,415.756,138.063Zm34.783-20.534q-1.4-1.537-2.1-1.606t-1.816,1.048a22.392,22.392,0,0,0-2.514,2.654q-1.118,1.4-2.375,2.933-.838.978-1.607,1.956a12.831,12.831,0,0,1-1.746,1.816q-1.257,1.118-2.654,2.165a16.992,16.992,0,0,0-2.514,2.3,37.4,37.4,0,0,1-3.841,3.841,21.948,21.948,0,0,1-4.54,3,4.208,4.208,0,0,0-1.187.7,5.134,5.134,0,0,1-1.048.7,2.45,2.45,0,0,0,.279.7q1.676-.559,3.353-1.048a23.976,23.976,0,0,0,3.213-1.187,9.437,9.437,0,0,0,2.3-1.816,16.773,16.773,0,0,1,2.165-1.956,5.467,5.467,0,0,1,1.676-.629,5.467,5.467,0,0,0,1.676-.629,13.565,13.565,0,0,0,2.3-1.606q1.048-.908,2.165-1.886a3.069,3.069,0,0,0,.559-.908,1.044,1.044,0,0,0,0-1.048,2.989,2.989,0,0,1-.07-1.676,4.945,4.945,0,0,1,.629-1.327q.419-.629.838-1.187a5.466,5.466,0,0,0,.7-1.257,11.838,11.838,0,0,0,.978,1.886q.279.349.978.07,1.537-.279,1.467-1.257a5.6,5.6,0,0,0-.349-1.676Zm11.874-17.461a26.459,26.459,0,0,0,1.257-2.584q.559-1.327,1.118-2.584a5.34,5.34,0,0,0-2.934.21,6.32,6.32,0,0,0-1.956,1.327,10.98,10.98,0,0,0-1.537,1.956,10.976,10.976,0,0,1-1.537,1.956,4.579,4.579,0,0,1,.7.559,2.188,2.188,0,0,0,.559.419q-.7.419-1.4.768a2.687,2.687,0,0,0-1.118,1.048,10.922,10.922,0,0,0-1.537,2.654,4.685,4.685,0,0,0,.14,3.353v.419a.123.123,0,0,1-.14.14q-.7-.279-1.327-.489t-.908.07a8.331,8.331,0,0,0-1.816,2.235,3.528,3.528,0,0,0-.14,2.933,3.073,3.073,0,0,0,.489,1.048q.349.489.629.489a1.273,1.273,0,0,0,.978-.14,3.251,3.251,0,0,0,.838-.559,22.89,22.89,0,0,0,1.746-2.584q.768-1.327,1.606-2.584a3.009,3.009,0,0,0,.768-1.956,3.484,3.484,0,0,0-1.187-1.956.9.9,0,0,1,.7,0,2.3,2.3,0,0,0,.7.14,2.855,2.855,0,0,0,.908.14,1.038,1.038,0,0,0,.768-.279,1.251,1.251,0,0,0,.349-.7,5.511,5.511,0,0,1,.21-.838,2.151,2.151,0,0,0,.349-.838,1.251,1.251,0,0,1,.349-.7q1.816-1.118.419-2.794a3.342,3.342,0,0,1,1.187-.07Q462.272,100.347,462.412,100.068Zm8.242-17.6a11.631,11.631,0,0,1,1.118-.489q.559-.21,1.257-.489a3.787,3.787,0,0,0-2.235-1.048,1.857,1.857,0,0,0-1.676.629,18.052,18.052,0,0,0-1.4,2.864,10.51,10.51,0,0,1-1.537,2.724,8.68,8.68,0,0,0-1.048,2.514,3.521,3.521,0,0,1-1.886,2.235,4.317,4.317,0,0,0,1.327.07q.629-.07,1.327-.21,2.235-.419,2.584-.978a4.536,4.536,0,0,0-.07-2.654,4.439,4.439,0,0,0,2.1-2.3A3.457,3.457,0,0,0,470.654,82.467Zm2.794-4.33A6.474,6.474,0,0,0,472.19,78a4.593,4.593,0,0,1-1.117-.14v1.537a9,9,0,0,0,1.117-.07,10.211,10.211,0,0,1,1.257-.07Zm2.794-9.359.559-1.4a7.965,7.965,0,0,0,.419-1.4q.14-.279-.279-.489a2.659,2.659,0,0,1-.7-.489,5.9,5.9,0,0,0-1.117,1.537q-.559,1.257-.978,2.514t-.838,2.654l-.838,1.676a12.807,12.807,0,0,0-.7,1.676,3,3,0,0,0,.7.559,5.242,5.242,0,0,0,.489-.559,5.243,5.243,0,0,1,.489-.559l1.4-2.794Q475.543,70.314,476.241,68.777ZM481.41,6.2a24.586,24.586,0,0,0,1.816-2.026,3.015,3.015,0,0,0,.14-3,10.271,10.271,0,0,0-1.118.419q-2.794,2.794-5.727,5.378t-5.727,5.378q-2.375,2.375-4.61,4.68t-4.61,4.68a2.426,2.426,0,0,0-.489.768,2.427,2.427,0,0,1-.489.768,9.4,9.4,0,0,1-1.537,2.375,7.614,7.614,0,0,1-.629.559,7.619,7.619,0,0,0-.629.559q-1.117,1.4-2.1,2.724t-2.1,2.584a8.025,8.025,0,0,1-1.257,1.257,8.025,8.025,0,0,0-1.257,1.257q-1.676,2.1-3.213,4.261t-3.353,4.68a5.356,5.356,0,0,1,1.187-.349,1.313,1.313,0,0,0,.768-.349q1.537-1.956,3-3.841t3-3.841a6.77,6.77,0,0,0,.838-.978q2.375-2.375,4.68-4.61t4.68-4.61q1.676-1.816,3.213-3.7a47.167,47.167,0,0,1,3.213-3.562q3.073-2.933,6.146-5.727T481.41,6.2ZM591.9,17.651v.559a16.918,16.918,0,0,0-.838,1.606A2.162,2.162,0,0,1,589.949,21a2.656,2.656,0,0,0-1.187,1.048,9.676,9.676,0,0,1-.908,1.327q-.7.838-1.4,1.816l-1.4,1.956a9.051,9.051,0,0,0-.489,1.187,4.4,4.4,0,0,1-.489,1.048,9.483,9.483,0,0,1-1.606,1.956,9.478,9.478,0,0,0-1.607,1.956q-.7.7-1.327,1.257a7.191,7.191,0,0,0-1.187,1.4,3.091,3.091,0,0,1-.978,1.257,8.026,8.026,0,0,0-1.257,1.257l-.419.419a2.452,2.452,0,0,1-1.187,1.746q-.908.489-1.886,1.048-.838-.838-.838-1.048t.978-.908a4.582,4.582,0,0,0,.559-.7,2.493,2.493,0,0,1,.7-.7q.419-.419.908-.838t1.048-.838a16.573,16.573,0,0,1,1.537-1.606,16.567,16.567,0,0,0,1.537-1.606q.7-.838,1.327-1.606t1.327-1.606q.7-1.118,1.257-2.165a18.3,18.3,0,0,1,1.257-2.026,8.025,8.025,0,0,1,1.257-1.257,17,17,0,0,0,1.4-1.257l-.419-.279a2.712,2.712,0,0,0,.21-.838q.07-.559.21-.559,1.537,0,1.4-.908a3.03,3.03,0,0,1,.14-1.606,2.252,2.252,0,0,0,.279-.978.284.284,0,0,1,.209.07.285.285,0,0,0,.21.07,3.384,3.384,0,0,1-.419-.489,3.385,3.385,0,0,0-.419-.489q-2.375,3.353-4.75,6.565a64.486,64.486,0,0,1-5.169,6.146l-.279-.279a1.236,1.236,0,0,0,.349-.559,1.236,1.236,0,0,1,.349-.559q1.537-1.956,3-3.841t3-3.841q1.118-1.676,1.956-3.213A5.462,5.462,0,0,1,587.5,16.6q.489-.629.908-1.187L589.53,14.3l.838.838q.279.279.7.629t.7.629a3.237,3.237,0,0,0,.07.629A3.237,3.237,0,0,1,591.9,17.651Zm-22.77,25.284a3.394,3.394,0,0,1,1.467-1.048,2.549,2.549,0,0,1,2.165.349l-2.375,2.375q-1.537,1.537-2.864,2.933T564.8,50.338a1.217,1.217,0,0,1-.629.349,1.218,1.218,0,0,0-.629.349,5.252,5.252,0,0,0-.489.559,5.229,5.229,0,0,1-.489.559l-1.257,1.257q0-.14-.419.279a9.4,9.4,0,0,1-3,3.562,27.049,27.049,0,0,0-3.562,3q-1.676,1.537-3.492,3.143T547.2,66.542a4.571,4.571,0,0,0-.489.279,4.57,4.57,0,0,1-.489.279q-.838.419-2.235,1.257t-2.864,1.816q-1.467.978-2.864,1.886t-2.1,1.327a11.791,11.791,0,0,1-3.213,1.676,21.232,21.232,0,0,1-3.492.838,23.853,23.853,0,0,1-3.632.279,5.183,5.183,0,0,1-3.353-1.257q-1.117-.838-1.816.279-.419.978-1.187.978a9.778,9.778,0,0,1-1.606-.14,2.971,2.971,0,0,1-1.467-.349,1.806,1.806,0,0,1-.768-1.467.285.285,0,0,0-.21.07.284.284,0,0,1-.209.07,3.237,3.237,0,0,1-.07.629,4.793,4.793,0,0,0-.07.908,8.9,8.9,0,0,1-1.118-1.327q-.419-.629-.978-1.327a1787.132,1787.132,0,0,0-.279-.559v-.14l-.419-.838a8.707,8.707,0,0,0-2.1-3.911,2.132,2.132,0,0,1-.768-1.048q-.21-.629-.489-1.327-.419-.7-.908-1.4t-.908-1.4a6.157,6.157,0,0,1-.629-1.4q-.21-.7-.489-1.537-.559-1.956-.908-3.841a11.8,11.8,0,0,1-.07-3.841q.14-1.4.349-2.654t.349-2.654a.569.569,0,0,0,.14-.419,9.849,9.849,0,0,1,.7-4.4q.838-2.026,1.537-3.981a1.31,1.31,0,0,1,.838-.7q-1.257-1.676.838-2.375a1.207,1.207,0,0,0,.419-.838,1.563,1.563,0,0,1,.838-2.1l.279-1.118a4.109,4.109,0,0,0,1.048-.419q.489-.279-.21-1.4-.14-.14.349-.768a4.143,4.143,0,0,1,.908-.908,3.383,3.383,0,0,1,.489-.419q.21-.14-.07-.559l1.257-.838a6.771,6.771,0,0,0-.838-.978q1.956,0,1.257-1.118a14.438,14.438,0,0,0,1.187-1.327q.489-.629,1.048-1.327.279-.559.629-1.118a7.913,7.913,0,0,0,.629-1.257.285.285,0,0,0,.21-.07.285.285,0,0,1,.21-.07,6.183,6.183,0,0,0,1.816-1.048q.279-.349,0-1.746a1.386,1.386,0,0,1,.629-.14,1.386,1.386,0,0,0,.629-.14,7.621,7.621,0,0,1-.559-.629q-.279-.349-.559-.768,2.1-2.654,4.61-5.867a10.264,10.264,0,0,1-.419,1.118.285.285,0,0,1,.21.07.285.285,0,0,0,.21.07l.559-.838q.279-.419.7-1.118,1.118-.279.838-1.816-.14-.838.978-1.956a4.942,4.942,0,0,1,2.235-1.4h.559q-.419-1.257.349-1.816a4.314,4.314,0,0,0,1.187-1.257,20.1,20.1,0,0,1,2.514-3.073q1.4-1.4,2.794-2.933a31.931,31.931,0,0,1,3-3.143A15.259,15.259,0,0,0,544.41-13.5a22.01,22.01,0,0,1,3.073-3.7q1.676-1.606,3.632-3.143a2.659,2.659,0,0,1,.7-.489,7.808,7.808,0,0,0,.838-.489.992.992,0,0,1,.838-.14l3.772,1.676a.62.62,0,0,1,.279.07.62.62,0,0,0,.279.07q.7.279,1.257.559a2.458,2.458,0,0,1,.978.978,4.864,4.864,0,0,0,.978.978,7.336,7.336,0,0,0,1.118.7,6.4,6.4,0,0,1,2.235,2.235q.7,1.257,1.4,2.794a.4.4,0,0,0,.14.279,7.391,7.391,0,0,1,.349,1.816,6.036,6.036,0,0,0,.489,1.956,17.21,17.21,0,0,1,1.048,2.933,13.651,13.651,0,0,0,1.048,2.794A3.925,3.925,0,0,1,569,1.447a4.365,4.365,0,0,0,0,3.073.679.679,0,0,1-.14.349,4.578,4.578,0,0,0-.279.489q1.257.838.7,1.606a5.9,5.9,0,0,0-.838,1.606q-.14.838-.279,1.606a11.736,11.736,0,0,1-.419,1.606,5.108,5.108,0,0,0-.349,1.327,1.822,1.822,0,0,1-.768,1.187.869.869,0,0,0-.279.629,1.387,1.387,0,0,1-.14.629,24.667,24.667,0,0,1-1.537,2.654,26.021,26.021,0,0,1-2.654,3.911l-1.676,2.514q-.838,1.257-1.676,2.375a13.374,13.374,0,0,1-1.467,1.956,13.382,13.382,0,0,0-1.467,1.956,6.618,6.618,0,0,0-.978,1.816,1.31,1.31,0,0,1-.7.838,5.368,5.368,0,0,0-2.165,1.886,20.019,20.019,0,0,1-1.746,2.3,13.294,13.294,0,0,1-1.676,1.4q-.978.7-1.816,1.4-.7.559-1.327,1.118t-1.327,1.118a15.032,15.032,0,0,1-1.746,1.257q-.908.559-1.886,1.257a.569.569,0,0,0-.419.14,12.013,12.013,0,0,1-4.191,2.165q-2.235.629-4.47,1.327a4.433,4.433,0,0,1-1.257.279h-.14a28.419,28.419,0,0,1-4.889.559A18.831,18.831,0,0,1,520.1,49.5l-.14-.14-.838.419a2,2,0,0,1-1.257,2.235.625.625,0,0,0-.349.419,2.733,2.733,0,0,1-.21.559,1.376,1.376,0,0,0-.349.489,1.375,1.375,0,0,1-.349.489q-.7.7-.21.908a2.426,2.426,0,0,1,.768.489,7.962,7.962,0,0,0-.419,1.4l-.279,1.4a1.512,1.512,0,0,1-.559.7,2.2,2.2,0,0,0-.279,2.933,1.353,1.353,0,0,1-.14,1.537,1.192,1.192,0,0,0,.279,1.676q.419.14.7,1.118l.419.838a13.893,13.893,0,0,1,.21,1.467,3.426,3.426,0,0,0,.489,1.467,3.482,3.482,0,0,0,2.375,1.537,15.761,15.761,0,0,0,6.286-.489,20.047,20.047,0,0,0,5.867-2.445q1.257-.838,3.073-2.026t3.772-2.514q1.956-1.327,3.7-2.654t3-2.165q3.073-2.375,6.007-4.889l5.867-5.029q2.514-2.235,4.889-4.47t4.749-4.61q2.1-1.816,4.121-3.632t3.981-3.772a4.866,4.866,0,0,0,.978-.978l.838-1.118a1.093,1.093,0,0,0,.279.21.756.756,0,0,1,.279.349q-3.353,3.632-6.775,7.124t-6.635,6.985q-.279.419-.489.768a3.247,3.247,0,0,1-.489.629q-.838.978-1.746,1.886l-1.746,1.746a1.093,1.093,0,0,1-.279.21,1.1,1.1,0,0,0-.279.21.756.756,0,0,0-.349.279,1.988,1.988,0,0,1-.349.419,1.715,1.715,0,0,1,.629.14.74.74,0,0,0,.629,0,5.022,5.022,0,0,0,.768-.629,5.022,5.022,0,0,1,.768-.629q2.1-1.676,4.051-3.492A50.158,50.158,0,0,0,569.135,42.934ZM517.45,31.48a2.96,2.96,0,0,1,1.257-1.118q.838-.419.419-1.676a1.455,1.455,0,0,0-.838.14,6.386,6.386,0,0,0-.908,1.118q-.349.559-.768,1.118-.419.419.14.419Q517.031,31.9,517.45,31.48Zm1.537,4.191q.838-1.118,1.537-2.026t1.537-2.026a3.358,3.358,0,0,0-2.235,1.327A3.615,3.615,0,0,0,518.987,35.671Zm24.027,1.956a1.491,1.491,0,0,0,.349-.908,9,9,0,0,1,.21-1.187,1.537,1.537,0,0,0-1.537,1.118,5.553,5.553,0,0,1-.7.838,5.542,5.542,0,0,0-.7.838l-1.676,1.257.419.419q.978-.559,1.886-1.118A15.037,15.037,0,0,0,543.013,37.626Zm1.956-2.375q.279,0,.559-.559a.175.175,0,0,0,0-.279.4.4,0,0,0-.279-.14.775.775,0,0,0-.978.14,1.375,1.375,0,0,0-.349.489,1.376,1.376,0,0,1-.349.489A4.9,4.9,0,0,0,544.969,35.252ZM535.61,23.1q-.978,1.257-1.816,2.584t-1.816,2.584a1.625,1.625,0,0,1-.419.279q-.279.14-.419,0-.7-.14-.838.21a7.24,7.24,0,0,0-.279.908,4.434,4.434,0,0,1-.279,1.257q-.279.559-.559,1.048t-.559,1.048l-.7.7a5.553,5.553,0,0,1-.7.838,3.728,3.728,0,0,0-.7.978,23.909,23.909,0,0,0-1.187,2.794,6.02,6.02,0,0,1-1.746,2.514l-.279.279L521.5,43.773a10.965,10.965,0,0,1,2.375.279,4.1,4.1,0,0,0,2.375-.14,9.906,9.906,0,0,1,1.257-.419,9.9,9.9,0,0,0,1.257-.419l1.257-.21a3.571,3.571,0,0,0,.978-.349,3.222,3.222,0,0,1,.908-.419,6.134,6.134,0,0,0,1.048-.419.8.8,0,0,0,.559-.279l4.191-2.933q.7-.419,1.4-.768a7.911,7.911,0,0,0,1.4-.908,28.215,28.215,0,0,0,3.562-3,21.335,21.335,0,0,0,2.864-3.562l.559-.559q.978-1.118,1.886-2.235t1.746-2.235L553.35,22.4l2.235-2.794a.948.948,0,0,0,.279-.7,2.484,2.484,0,0,0,.21-.7,1.251,1.251,0,0,1,.349-.7,53.775,53.775,0,0,0,3.632-6.845,28.2,28.2,0,0,0,2.1-7.543A11.308,11.308,0,0,0,562.36.329q-.07-1.4-.07-2.794a1.647,1.647,0,0,0-.21-.7q-.209-.419-.489-.419a1.737,1.737,0,0,0-1.257.559l-1.118,1.118a6.4,6.4,0,0,1-1.117.978q-.559.559-1.048.978T556,.888a10.049,10.049,0,0,0-1.536,1.257A7.883,7.883,0,0,1,552.792,3.4a7.222,7.222,0,0,0-1.956,1.816,19.531,19.531,0,0,1-1.816,2.1,5.489,5.489,0,0,1-.978.768q-.559.349-1.117.629a3.974,3.974,0,0,0-.7.838,14.619,14.619,0,0,0-1.187,1.956,14.631,14.631,0,0,1-1.187,1.956,15,15,0,0,1-1.607,1.886L540.5,17.092a29.184,29.184,0,0,0-2.1,2.654A5.124,5.124,0,0,1,535.61,21.7a3.924,3.924,0,0,0,.07.768A.952.952,0,0,1,535.61,23.1ZM532.257,6.2q-.279.279-.629.7t-.629.7a.569.569,0,0,0,.14.419,1.24,1.24,0,0,1,.559-.14.447.447,0,0,0,.419-.279.868.868,0,0,0,.279-.629,1.386,1.386,0,0,1,.14-.629A.4.4,0,0,0,532.257,6.2Zm-2.514,2.1a2.569,2.569,0,0,0-.629.489l-.629.629a8.5,8.5,0,0,0,1.257.978.247.247,0,0,0,.279.279q.279-.419.489-.768T531,8.99a1.625,1.625,0,0,0-.419-.279,4.568,4.568,0,0,1-.489-.279A.679.679,0,0,0,529.743,8.291Zm-1.117,2.1q-1.4-.14-2.235,1.537a13.663,13.663,0,0,1,1.4.838,2.729,2.729,0,0,1-.21-.559q-.07-.279-.21-.7a2.3,2.3,0,0,1,.559.07.788.788,0,0,0,.559-.07q.28,0,.838-.559a.636.636,0,0,1-.349-.349A.323.323,0,0,0,528.625,10.387ZM510.326,41.4q0-.14.07-.14t.07-.14a10.84,10.84,0,0,0-.559-1.4.569.569,0,0,0-.419-.14,1.24,1.24,0,0,1-.14.559.594.594,0,0,0,0,.559Q509.348,40.839,510.326,41.4Zm-.559-2.375q.559-.279,1.048-.559t1.187-.7q-1.117-1.118.279-2.235a.417.417,0,0,0,.07-.419.788.788,0,0,1,.07-.559.285.285,0,0,1-.21-.07.284.284,0,0,0-.21-.07q-.7,1.118-1.257,2.165t-1.257,2.165ZM512,51.316a1.324,1.324,0,0,0,.489-1.048,2.429,2.429,0,0,0-.21-1.327,7.663,7.663,0,0,0-.419.978,7.662,7.662,0,0,1-.419.978.62.62,0,0,0,.07.279.62.62,0,0,1,.07.279Q512,51.456,512,51.316Zm0-17.88a2.66,2.66,0,0,0,.7.489,7.8,7.8,0,0,1,.838.489,7.807,7.807,0,0,0,.489-.838,4.785,4.785,0,0,0,.349-.978,1.317,1.317,0,0,0,.07-.768,6.455,6.455,0,0,1-.07-.908,1.615,1.615,0,0,1,.349.21,1.616,1.616,0,0,0,.349.21,14.447,14.447,0,0,0,1.187-1.327q.489-.629,1.048-1.327a1.614,1.614,0,0,1,.21-.349,1.617,1.617,0,0,0,.21-.349q0-.14-.21-.279t-.349,0a1.144,1.144,0,0,0-.7.419,3.823,3.823,0,0,0-.21.489,3.831,3.831,0,0,1-.21.489q-.14,0-.419-.279.279-.559.629-1.118a2.24,2.24,0,0,1,.908-.838,4.7,4.7,0,0,0,1.467-.838q.209-.279-.489-1.537l.838-.419q.559-.279,1.187-.559a1.54,1.54,0,0,0,.768-.559,2.278,2.278,0,0,1,.978-1.886,7.536,7.536,0,0,0,1.537-1.187q-.279-1.4-.419-1.816a7.885,7.885,0,0,0,1.676-1.257,4.866,4.866,0,0,0,.978-.978l.838-1.118q.978-1.118-.559-1.816a51.519,51.519,0,0,0-7.683,9.778Q515.075,27.988,512,33.436Zm1.4,13.829a20.429,20.429,0,0,0,1.187-2.514,20.419,20.419,0,0,1,1.187-2.514.247.247,0,0,1-.279-.279q-.559.279-.559.559a7.26,7.26,0,0,1-.768,1.606,17.9,17.9,0,0,0-.908,1.606,2.977,2.977,0,0,0-.279,1.537Z" transform="matrix(0.995, -0.105, 0.105, 0.995, 10.128, 132.812)" fill="#5cadd3"/>
</svg>
