<svg xmlns="http://www.w3.org/2000/svg" width="268.407" height="238.344" viewBox="0 0 268.407 238.344">
  <g id="グループ_3440" data-name="グループ 3440" transform="translate(-33.318 -270.264)">
    <path id="パス_1666" data-name="パス 1666" d="M3.476,0V-56.248h7.742L23.384-22.357h.158V-56.248H31.6V0H24.016L11.692-33.812h-.158V0ZM38.868,0V-56.248H62.884v7.584H46.926v16.511h13.9v7.584h-13.9V-8.058H62.884V0Zm71.021-56.248L101.515,0H93.931L87.769-36.5h-.158L81.528,0H73.944L65.57-56.248H74.1L78.131-20.54h.158l6.32-35.708h6.162l6.557,36.577h.158l3.871-36.577ZM3.318,52.024a14.371,14.371,0,0,1,1.185-6,12.687,12.687,0,0,1,3.16-4.345,13.359,13.359,0,0,1,4.306-2.528,14.341,14.341,0,0,1,14.1,2.528,13.228,13.228,0,0,1,3.081,4.345,14.371,14.371,0,0,1,1.185,6v2.844H22.278V52.024a5.356,5.356,0,0,0-1.619-4.306,5.712,5.712,0,0,0-3.832-1.382A5.712,5.712,0,0,0,13,47.718a5.356,5.356,0,0,0-1.62,4.306v29.7A5.356,5.356,0,0,0,13,86.034a5.712,5.712,0,0,0,3.832,1.382,5.712,5.712,0,0,0,3.832-1.382,5.356,5.356,0,0,0,1.619-4.306V71.142h-6.4v-7.11H30.336v17.7a14.24,14.24,0,0,1-1.185,6.083A12.55,12.55,0,0,1,26.07,92a13.547,13.547,0,0,1-4.385,2.607,14.016,14.016,0,0,1-9.717,0A12.676,12.676,0,0,1,7.663,92,12.061,12.061,0,0,1,4.5,87.811a14.24,14.24,0,0,1-1.185-6.083ZM45.5,46.336V63.874h4.582a8.108,8.108,0,0,0,3.4-.592,4.617,4.617,0,0,0,1.975-1.7,7.722,7.722,0,0,0,.869-2.726,29.826,29.826,0,0,0,0-7.5,7.509,7.509,0,0,0-.948-2.8q-1.5-2.212-5.688-2.212ZM37.446,95V38.752H50.4q14.22,0,14.22,16.511a20.808,20.808,0,0,1-1.54,8.453,11.945,11.945,0,0,1-5.411,5.609L66.36,95H57.828L50.323,70.984H45.5V95ZM87.374,75.329l-3.95-20.382h-.158l-3.95,20.382ZM67.466,95,80.027,38.752h6.715L99.3,95H91.245l-2.37-12.087H77.894L75.524,95Zm35.787,0V38.752h11.929q6.952,0,10.547,3.792t3.594,10.744V79.6q0,7.9-3.831,11.652T114.471,95Zm8.058-48.664v41.08h3.713q3.4,0,4.819-1.7t1.422-5.332v-27.1a8.511,8.511,0,0,0-1.343-5.135q-1.343-1.817-4.9-1.817Zm51.666-7.584V82.36a12.733,12.733,0,0,1-3.792,9.243A13.406,13.406,0,0,1,155,94.447a12.578,12.578,0,0,1-5.056,1.027,12.3,12.3,0,0,1-5.016-1.027,13.719,13.719,0,0,1-6.992-6.992,12.5,12.5,0,0,1-1.027-5.1V38.752h8.058V81.57a6.034,6.034,0,0,0,1.422,4.424,5.155,5.155,0,0,0,7.11,0,6.034,6.034,0,0,0,1.422-4.424V38.752Zm22.91,36.577-3.95-20.382h-.158l-3.95,20.382ZM165.979,95,178.54,38.752h6.715L197.816,95h-8.058l-2.37-12.087H176.407L174.037,95Zm36.735,0V46.336h-9.322V38.752h26.7v7.584h-9.322V95Zm20.935,0V38.752h24.016v7.584H231.707V62.847h13.9v7.584h-13.9V86.942h15.958V95Z" transform="translate(30 326.512)" fill="#fff" opacity="0.8"/>
    <path id="パス_1665" data-name="パス 1665" d="M11.25-46.2v16.65H15.6a7.7,7.7,0,0,0,3.225-.562A4.383,4.383,0,0,0,20.7-31.725a7.331,7.331,0,0,0,.825-2.587,24.88,24.88,0,0,0,.225-3.562,24.88,24.88,0,0,0-.225-3.562,7.129,7.129,0,0,0-.9-2.662q-1.425-2.1-5.4-2.1ZM3.6,0V-53.4H15.9q13.5,0,13.5,15.675A19.754,19.754,0,0,1,27.938-29.7,11.341,11.341,0,0,1,22.8-24.375L31.05,0h-8.1L15.825-22.8H11.25V0ZM35.55,0V-53.4h22.8v7.2H43.2v15.675H56.4v7.2H43.2V-7.65H58.35V0ZM87.6-15.225v3.3a11.89,11.89,0,0,1-.938,4.687A12.967,12.967,0,0,1,84.075-3.3,12.474,12.474,0,0,1,80.213-.562,11.307,11.307,0,0,1,75.45.45a17.126,17.126,0,0,1-4.425-.6,10.469,10.469,0,0,1-4.05-2.1,11.613,11.613,0,0,1-2.963-3.863A13.675,13.675,0,0,1,62.85-12.15v-29.4a13.006,13.006,0,0,1,.9-4.875,11.473,11.473,0,0,1,2.55-3.9,11.854,11.854,0,0,1,3.938-2.588A13.23,13.23,0,0,1,75.3-53.85a11.6,11.6,0,0,1,8.775,3.525,12.523,12.523,0,0,1,2.588,4.087A13.8,13.8,0,0,1,87.6-41.1v3H79.95v-2.55a6.192,6.192,0,0,0-1.275-3.9,4.13,4.13,0,0,0-3.45-1.65q-2.85,0-3.787,1.763a9.446,9.446,0,0,0-.937,4.462v27.3a7.07,7.07,0,0,0,1.012,3.9Q72.525-7.2,75.15-7.2a5.555,5.555,0,0,0,1.612-.262,4.811,4.811,0,0,0,1.613-.862A4.576,4.576,0,0,0,79.5-9.975a6.685,6.685,0,0,0,.45-2.625v-2.625ZM101.475-46.2v16.65h4.35a7.7,7.7,0,0,0,3.225-.562,4.383,4.383,0,0,0,1.875-1.613,7.331,7.331,0,0,0,.825-2.587,24.88,24.88,0,0,0,.225-3.562,24.88,24.88,0,0,0-.225-3.562,7.129,7.129,0,0,0-.9-2.662q-1.425-2.1-5.4-2.1ZM93.825,0V-53.4h12.3q13.5,0,13.5,15.675a19.754,19.754,0,0,1-1.463,8.025,11.341,11.341,0,0,1-5.138,5.325L121.275,0h-8.1L106.05-22.8h-4.575V0Zm56.7-53.4V-12a12.273,12.273,0,0,1-.937,4.838,12.322,12.322,0,0,1-2.663,3.937,12.727,12.727,0,0,1-3.975,2.7,11.941,11.941,0,0,1-4.8.975,11.677,11.677,0,0,1-4.763-.975,12.857,12.857,0,0,1-3.937-2.7,12.857,12.857,0,0,1-2.7-3.937A11.863,11.863,0,0,1,125.775-12V-53.4h7.65v40.65a5.729,5.729,0,0,0,1.35,4.2A4.579,4.579,0,0,0,138.15-7.2a4.579,4.579,0,0,0,3.375-1.35,5.729,5.729,0,0,0,1.35-4.2V-53.4ZM157.95,0V-53.4h7.65V0Zm20.1,0V-46.2H169.2v-7.2h25.35v7.2H185.7V0Zm20.1,0V-53.4h7.65V0Zm14.775,0V-53.4h7.35l11.55,32.175h.15V-53.4h7.65V0h-7.2l-11.7-32.1h-.15V0Zm33.15-40.8a13.644,13.644,0,0,1,1.125-5.7,12.045,12.045,0,0,1,3-4.125,12.683,12.683,0,0,1,4.088-2.4,13.509,13.509,0,0,1,4.612-.825,13.509,13.509,0,0,1,4.613.825,13.6,13.6,0,0,1,4.163,2.4A12.559,12.559,0,0,1,270.6-46.5a13.644,13.644,0,0,1,1.125,5.7v2.7h-7.65v-2.7a5.085,5.085,0,0,0-1.538-4.087A5.423,5.423,0,0,0,258.9-46.2a5.423,5.423,0,0,0-3.637,1.313,5.085,5.085,0,0,0-1.537,4.087v28.2a5.085,5.085,0,0,0,1.537,4.087A5.423,5.423,0,0,0,258.9-7.2a5.423,5.423,0,0,0,3.638-1.312,5.085,5.085,0,0,0,1.538-4.087V-22.65H258V-29.4h13.725v16.8A13.519,13.519,0,0,1,270.6-6.825a11.914,11.914,0,0,1-2.925,3.975,12.861,12.861,0,0,1-4.163,2.475A13.509,13.509,0,0,1,258.9.45a13.509,13.509,0,0,1-4.612-.825A12.034,12.034,0,0,1,250.2-2.85a11.45,11.45,0,0,1-3-3.975,13.519,13.519,0,0,1-1.125-5.775Z" transform="translate(30 508.158)" fill="#fff" opacity="0.8"/>
  </g>
</svg>
