<svg xmlns="http://www.w3.org/2000/svg" viewBox="0 0 450 338.18" id="logo" style="width: 60px; height: 80px"><defs><style>.d{fill:#1f2a66;}</style></defs><g id="a"/><g id="b"><g id="c"><g><path class="d" d="M110.66,79.35c-4.98-4.98-11.56-7.59-18.16-7.59-2.93,0-5.89,.48-8.72,1.47,.71-2.35,1.09-4.84,1.09-7.41,0-14.22-11.52-25.73-25.74-25.74-14.22,0-25.73,11.52-25.74,25.74,0,2.57,.38,5.05,1.08,7.4-2.68-.94-5.55-1.45-8.55-1.45-14.32,0-25.92,11.6-25.92,25.92,0,14.32,11.6,25.92,25.92,25.92,14.32,0,25.92-11.6,25.92-25.92,0-2.62-.39-5.15-1.12-7.54,2.63,.91,5.46,1.41,8.4,1.41,2.95,0,5.78-.5,8.41-1.42-.75,2.48-1.13,5.05-1.13,7.61,0,6.61,2.57,13.24,7.59,18.26,5.07,5.07,11.75,7.59,18.36,7.59h.02c6.61,0,13.25-2.56,18.27-7.59,5.12-5.12,7.6-11.87,7.59-18.5,0-6.61-2.61-13.18-7.59-18.16Zm-73.36,29.71c-2.93,2.92-6.92,4.71-11.38,4.71-4.46,0-8.45-1.79-11.38-4.71-2.92-2.93-4.71-6.92-4.71-11.38,0-4.46,1.79-8.45,4.71-11.38,2.93-2.92,6.92-4.71,11.38-4.71,4.46,0,8.45,1.79,11.38,4.71,2.92,2.93,4.71,6.92,4.71,11.38,0,4.46-1.79,8.45-4.71,11.38Zm10.58-32c-2.89-2.89-4.66-6.84-4.66-11.25,0-4.41,1.77-8.35,4.66-11.25,2.89-2.88,6.84-4.66,11.25-4.66,4.41,0,8.35,1.77,11.25,4.66,2.89,2.89,4.66,6.84,4.66,11.25,0,4.41-1.77,8.35-4.66,11.25-2.89,2.89-6.84,4.66-11.25,4.66-4.41,0-8.35-1.77-11.25-4.66Zm55.83,32c-3.15,3.14-7.22,4.71-11.32,4.71-4.17,0-8.27-1.56-11.43-4.71-3.14-3.15-4.71-7.22-4.71-11.31,0-4.17,1.55-8.28,4.71-11.44h0c3.17-3.17,7.31-4.7,11.54-4.71,4.03,0,8.07,1.58,11.21,4.71,3.13,3.14,4.71,7.17,4.71,11.21,0,4.23-1.54,8.37-4.71,11.54Z"/><path class="d" d="M175.97,30.28c-3.89-3.89-9.03-5.86-14.13-5.85-2.23,0-4.46,.37-6.59,1.11,.54-1.81,.84-3.72,.84-5.7,0-10.96-8.88-19.84-19.84-19.84-10.96,0-19.84,8.88-19.84,19.84,0,1.98,.29,3.9,.84,5.7-2.06-.72-4.28-1.12-6.59-1.12-11.04,0-19.98,8.95-19.98,19.98,0,11.04,8.94,19.98,19.98,19.98,11.04,0,19.98-8.94,19.98-19.98,0-2.02-.3-3.97-.86-5.81,2.03,.7,4.21,1.09,6.48,1.09s4.45-.39,6.49-1.09c-.58,1.92-.87,3.9-.87,5.88,0,5.1,1.98,10.2,5.85,14.07,3.91,3.91,9.06,5.86,14.16,5.85h.01c5.09,0,10.21-1.98,14.08-5.85,3.89-3.89,5.86-9.03,5.85-14.13,0-5.1-1.96-10.24-5.85-14.13Zm-56.55,22.9c-2.26,2.25-5.33,3.63-8.77,3.63-3.44,0-6.51-1.38-8.77-3.63-2.25-2.26-3.63-5.33-3.63-8.77,0-3.44,1.38-6.51,3.63-8.77,2.26-2.25,5.33-3.63,8.77-3.63,3.44,0,6.51,1.38,8.77,3.63,2.25,2.26,3.63,5.33,3.63,8.77,0,3.44-1.38,6.51-3.63,8.77Zm8.16-24.67c-2.22-2.23-3.59-5.27-3.59-8.67,0-3.4,1.37-6.44,3.59-8.67,2.23-2.23,5.27-3.59,8.67-3.59,3.4,0,6.44,1.37,8.67,3.59,2.23,2.23,3.59,5.27,3.59,8.67,0,3.4-1.37,6.44-3.59,8.67-2.23,2.23-5.27,3.59-8.67,3.59-3.4,0-6.44-1.37-8.67-3.59Zm43.04,24.67c-2.43,2.43-5.57,3.63-8.74,3.63-3.21,0-6.37-1.2-8.8-3.63-2.42-2.42-3.63-5.56-3.63-8.71,0-3.23,1.2-6.4,3.63-8.83h0c2.43-2.43,5.58-3.63,8.77-3.63,3.19,0,6.34,1.2,8.77,3.63,2.43,2.43,3.63,5.58,3.63,8.77,0,3.19-1.2,6.34-3.63,8.77Z"/><g><path class="d" d="M450,199.74c.01-19.47-7.31-39.14-22.25-54.07-7.49-7.49-16.19-13.07-25.44-16.76-9.25-3.69-19.05-5.49-28.81-5.49-12.07,0-24.12,2.97-35.03,8.78,.11-1.69,.18-3.4,.18-5.12,0-20.79-8.45-39.69-22.08-53.3-13.61-13.63-32.52-22.08-53.3-22.08-20.78,0-39.69,8.45-53.3,22.08-13.63,13.61-22.08,32.52-22.08,53.3,0,1.74,.06,3.46,.18,5.16-10.62-5.63-22.73-8.83-35.56-8.83-20.95,0-40,8.52-53.71,22.25-13.7,13.69-22.22,32.68-22.25,53.58,0,.04,0,.09,0,.13h0c0,20.95,8.52,40,22.25,53.72,13.72,13.73,32.77,22.25,53.71,22.25h.02c20.94,0,39.98-8.52,53.7-22.25,13.73-13.72,22.25-32.77,22.25-53.71,0-1.86-.07-3.7-.2-5.53,10.47,5.5,22.39,8.61,35,8.61h.02c12.61,0,24.52-3.12,34.99-8.61-.13,1.84-.2,3.68-.2,5.52-.01,19.41,7.44,38.9,22.25,53.71,14.81,14.81,34.3,22.26,53.71,22.25h.07l-55.33,48.53,12.55,14.31,92.93-81.51-.15-.17c1.24-1.09,2.46-2.22,3.64-3.41,14.69-14.69,22.25-34.01,22.25-53.36Zm-257.23,39.9c-10.33,10.32-24.51,16.67-40.26,16.67-15.75,0-29.92-6.36-40.26-16.67-10.32-10.33-16.67-24.5-16.68-40.26h0c0-15.75,6.36-29.92,16.68-40.26,10.33-10.32,24.51-16.67,40.26-16.68,15.75,0,29.92,6.36,40.26,16.68,2.36,2.37,4.51,4.93,6.43,7.67,.64,1.03,1.3,2.05,1.99,3.04,5.24,8.61,8.25,18.7,8.25,29.54,0,15.75-6.36,29.92-16.67,40.26Zm110.35-72.71c-10.23,10.21-24.25,16.5-39.85,16.5-15.59,0-29.62-6.29-39.84-16.5-2.33-2.34-4.46-4.87-6.35-7.58-.64-1.03-1.31-2.05-2-3.05-5.18-8.52-8.15-18.5-8.16-29.22,0-15.59,6.29-29.62,16.5-39.85,10.23-10.21,24.26-16.5,39.84-16.5,15.59,0,29.62,6.29,39.85,16.5,10.21,10.23,16.5,24.25,16.5,39.85,0,10.68-2.96,20.63-8.1,29.13-.74,1.07-1.45,2.15-2.12,3.24-1.88,2.67-3.98,5.17-6.28,7.47Zm70.92,89.38c-14.6-.01-29.12-5.54-40.26-16.68-11.13-11.14-16.66-25.65-16.67-40.26,0-10.26,2.74-20.47,8.23-29.51,.72-1.04,1.42-2.11,2.09-3.19,1.87-2.65,3.98-5.18,6.36-7.56,11.06-11.05,25.39-16.67,39.72-16.67,7.42,0,14.83,1.37,21.76,4.14,6.94,2.77,13.4,6.91,19.03,12.54,11.19,11.2,16.66,25.83,16.67,40.61,0,14.43-5.59,28.82-16.67,39.9-11.14,11.13-25.65,16.66-40.26,16.67Z"/><path class="d" d="M126.15,167.77h31.74c5.99,0,10.83,1.61,14.5,4.82,3.67,3.21,5.5,7.45,5.5,12.7,0,6.05-2.04,10.48-6.12,13.28-1.09,.74-2.31,1.37-3.68,1.88,.77,.31,1.47,.66,2.1,1.03,3.6,2.14,5.47,5.74,5.61,10.79l.3,10.32c.06,2.05,.27,3.51,.64,4.37,.37,.86,1.08,1.54,2.14,2.05v1.67h-14.53c-.34-.66-.64-2.06-.9-4.22-.26-2.15-.4-4.47-.43-6.96l-.08-5.82c-.06-2.83-.89-4.84-2.51-6.04-1.61-1.2-4.29-1.8-8.02-1.8h-13.11v24.88h-13.15v-62.96Zm13.15,27.5h15.25c3.4,0,5.95-.69,7.64-2.08,1.7-1.38,2.55-3.48,2.55-6.27s-.81-4.85-2.42-6.23c-1.61-1.38-4.03-2.08-7.26-2.08h-15.76v16.66Z"/></g></g></g></g></svg>