<svg xmlns="http://www.w3.org/2000/svg" width="127" height="127" viewBox="0 0 127 127">
  <g id="グループ_3377" data-name="グループ 3377" transform="translate(-698 -8802.93)">
    <g id="楕円形_89" data-name="楕円形 89" transform="translate(698 8802.93)" fill="#5cadd3" stroke="#5cadd3" stroke-width="10">
      <circle cx="63.5" cy="63.5" r="63.5" stroke="none"/>
      <circle cx="63.5" cy="63.5" r="58.5" fill="none"/>
    </g>
    <g id="初心者マークの無料アイコン素材_1" data-name="初心者マークの無料アイコン素材 1" transform="translate(741.189 8841.332)">
      <path id="パス_1715" data-name="パス 1715" d="M120.907.321a6.377,6.377,0,0,0-6.969,2.051l-8.085,9.863c-.134.162-.263.33-.391.5-.033.039-.062.077-.1.116q-.234-.312-.481-.613L96.8,2.371A6.387,6.387,0,0,0,89.818.325a6.706,6.706,0,0,0-4.464,6.438v26.7a8.763,8.763,0,0,0,1.982,5.543l16.742,20.423a1.668,1.668,0,0,0,2.581,0L123.4,39.01a8.765,8.765,0,0,0,1.982-5.543V6.76A6.7,6.7,0,0,0,120.907.321Zm-.3,33.146a3.97,3.97,0,0,1-.9,2.517L105.956,52.84a.333.333,0,0,1-.591-.211V20.509a1.149,1.149,0,0,1,.267-.737l12-14.373a1.631,1.631,0,0,1,1.27-.624,1.8,1.8,0,0,1,.853.223,1.778,1.778,0,0,1,.854,1.582Z" transform="translate(-85.354 0)" fill="#fff"/>
    </g>
  </g>
</svg>
