<svg xmlns="http://www.w3.org/2000/svg" xmlns:xlink="http://www.w3.org/1999/xlink" width="127" height="127" viewBox="0 0 127 127">
  <defs>
    <clipPath id="clip-path">
      <rect id="長方形_1873" data-name="長方形 1873" width="67.734" height="61.703" fill="#fff"/>
    </clipPath>
  </defs>
  <g id="グループ_3380" data-name="グループ 3380" transform="translate(-473 -9126.93)">
    <g id="楕円形_92" data-name="楕円形 92" transform="translate(473 9126.93)" fill="#5cadd3" stroke="#5cadd3" stroke-width="10">
      <circle cx="63.5" cy="63.5" r="63.5" stroke="none"/>
      <circle cx="63.5" cy="63.5" r="58.5" fill="none"/>
    </g>
    <g id="グループ_3318" data-name="グループ 3318" transform="translate(502.633 9159.579)">
      <path id="パス_1719" data-name="パス 1719" d="M297.925,22.472V33.687l2.3-1.036V24.777h27.722V44.064H300.23V42.895l-2.3,1.476v2h32.331v-23.9Z" transform="translate(-262.522 -19.802)" fill="#fff"/>
      <g id="グループ_3314" data-name="グループ 3314">
        <g id="グループ_3313" data-name="グループ 3313" clip-path="url(#clip-path)">
          <path id="パス_1720" data-name="パス 1720" d="M147.763,4.588A4.588,4.588,0,1,1,143.174,0a4.588,4.588,0,0,1,4.588,4.588" transform="translate(-122.118)" fill="#fff"/>
          <rect id="長方形_1871" data-name="長方形 1871" width="33.127" height="22.584" transform="translate(3.428 39.119)" fill="#fff"/>
          <rect id="長方形_1872" data-name="長方形 1872" width="39.983" height="6.568" transform="translate(0 30.246)" fill="#fff"/>
          <path id="パス_1721" data-name="パス 1721" d="M78.179,93.556a2,2,0,0,0-2.646-1l-5.686,2.557-5.767-5.92c-.054-.055-.114-.112-.173-.164a3.333,3.333,0,0,0-1.961-.765H60.526l-1.95,5.179-.4-3.232H56.939l-.4,3.232-1.95-5.179H53.473a3.311,3.311,0,0,0-1.93.532l-.123.092-.063.051-.121.1-.2.171c-.117.108-.231.215-.337.32l-.3.309-.282.305c-.185.2-.355.405-.529.608s-.332.405-.49.609c-.637.812-1.2,1.635-1.73,2.464a53.419,53.419,0,0,0-2.83,5.059c-.215.426-.423.856-.624,1.285s-.4.851-.59,1.274q-.579,1.27-1.138,2.536c-.256.58-.509,1.159-.762,1.738h5.428q.527-1.006,1.059-2,.32-.6.643-1.183c.214-.389.43-.771.653-1.15q.413-.715.843-1.413l.123,5.75H64.943l.163-7.665,2.354,2.061.218.192a2.348,2.348,0,0,0,2.811.208l6.944-4.449a2,2,0,0,0,.745-2.505" transform="translate(-36.501 -77.772)" fill="#fff"/>
          <path id="パス_1722" data-name="パス 1722" d="M170.809,91.511l.327-1.171h-1.89l.327,1.171Z" transform="translate(-149.133 -79.604)" fill="#fff"/>
        </g>
      </g>
    </g>
  </g>
</svg>
