<svg xmlns="http://www.w3.org/2000/svg" xmlns:xlink="http://www.w3.org/1999/xlink" width="127" height="127" viewBox="0 0 127 127">
  <defs>
    <clipPath id="clip-path">
      <rect id="長方形_1874" data-name="長方形 1874" width="54.72" height="45.858" fill="#fff"/>
    </clipPath>
  </defs>
  <g id="グループ_3379" data-name="グループ 3379" transform="translate(-248 -9126.93)">
    <g id="楕円形_91" data-name="楕円形 91" transform="translate(248 9126.93)" fill="#5cadd3" stroke="#5cadd3" stroke-width="10">
      <circle cx="63.5" cy="63.5" r="63.5" stroke="none"/>
      <circle cx="63.5" cy="63.5" r="58.5" fill="none"/>
    </g>
    <g id="グループ_3317" data-name="グループ 3317" transform="translate(284.504 9175.424)">
      <g id="グループ_3316" data-name="グループ 3316" clip-path="url(#clip-path)">
        <path id="パス_1723" data-name="パス 1723" d="M187.168,5.149l-9.7,7.667,1.348,1.519a6.263,6.263,0,0,0,8.462.813l3.3-2.527a.843.843,0,0,1,1.125.09l16.842,16.724c.455-.467.881-.924,1.27-1.37,8.755-10.015,4.276-22.919-4.895-27.033C199.585-1.361,193.163.57,187.17,5.15h0" transform="translate(-159.81 0)" fill="#fff"/>
        <path id="パス_1724" data-name="パス 1724" d="M31.188,14.421l-2.7,2.065a7.956,7.956,0,0,1-10.749-1.033L15.8,13.267a.843.843,0,0,1,.108-1.221L25.94,4.12C20.365.293,14.526-1.173,9.611,1.031.441,5.145-4.038,18.048,4.717,28.064c5.715,6.538,19.226,15.706,22.1,17.625a1,1,0,0,0,1.106.006c.35-.229.853-.563,1.475-.985a2.076,2.076,0,0,0,.3-3.188l-3.72-3.716a.642.642,0,0,1,0-.908l.284-.284a.642.642,0,0,1,.908,0l4.453,4.447a2.074,2.074,0,0,0,2.678.217l.489-.353a2.076,2.076,0,0,0,.248-3.148l-4.145-4.14a.642.642,0,0,1,0-.908l.284-.284a.642.642,0,0,1,.908,0l4.744,4.738a2.076,2.076,0,0,0,2.738.173q.5-.387,1-.78a2.074,2.074,0,0,0,.179-3.1l-4.939-4.932a.642.642,0,0,1,0-.908l.284-.284a.642.642,0,0,1,.908,0l5.336,5.33a2.078,2.078,0,0,0,2.835.092c.829-.725,1.622-1.445,2.361-2.152Z" transform="translate(0 0)" fill="#fff"/>
      </g>
    </g>
  </g>
</svg>
