<svg xmlns="http://www.w3.org/2000/svg" width="127" height="127" viewBox="0 0 127 127">
  <g id="グループ_3375" data-name="グループ 3375" transform="translate(-248 -8802.93)">
    <g id="楕円形_87" data-name="楕円形 87" transform="translate(248 8802.93)" fill="#5cadd3" stroke="#5cadd3" stroke-width="10">
      <circle cx="63.5" cy="63.5" r="63.5" stroke="none"/>
      <circle cx="63.5" cy="63.5" r="58.5" fill="none"/>
    </g>
    <g id="ifn0440" transform="translate(277.144 8840.14)">
      <path id="パス_1714" data-name="パス 1714" d="M23.753,263.962a8.913,8.913,0,1,0,8.914,8.913,8.913,8.913,0,0,0-8.914-8.913Zm42.981,0a8.913,8.913,0,1,0,8.914,8.913,8.913,8.913,0,0,0-8.914-8.913Zm-21.49,11.959a10.623,10.623,0,1,0,10.621,10.623,10.623,10.623,0,0,0-10.621-10.623Zm-29.3,5.714c-3.12,1.735-4.947,4.409-4.949,7.241,0,5.062,5.713,9.166,12.761,9.167a15.043,15.043,0,0,0,10.022-3.494,13.848,13.848,0,0,1-1.736-12.616q-.236-.152-.482-.3a11.7,11.7,0,0,1-15.616,0Zm42.981,0q-.243.142-.475.293a13.881,13.881,0,0,1-1.721,12.622,15.03,15.03,0,0,0,10.008,3.494c7.049,0,12.763-4.1,12.762-9.167-.007-2.834-1.837-5.506-4.959-7.239a11.7,11.7,0,0,1-15.616,0Zm-22.988,15.35c-3.719,2.067-5.9,5.254-5.9,8.632,0,6.034,6.81,10.927,15.21,10.927s15.21-4.892,15.21-10.927c-.008-3.377-2.189-6.562-5.91-8.628a13.941,13.941,0,0,1-18.61,0Z" transform="translate(-10.992 -263.962)" fill="#fff"/>
    </g>
  </g>
</svg>
