<svg xmlns="http://www.w3.org/2000/svg" width="127" height="127" viewBox="0 0 127 127">
  <g id="グループ_3378" data-name="グループ 3378" transform="translate(-923 -8802.93)">
    <g id="楕円形_90" data-name="楕円形 90" transform="translate(923 8802.93)" fill="#5cadd3" stroke="#5cadd3" stroke-width="10">
      <circle cx="63.5" cy="63.5" r="63.5" stroke="none"/>
      <circle cx="63.5" cy="63.5" r="58.5" fill="none"/>
    </g>
    <g id="会社_ビルのアイコン素材_3" data-name="会社・ビルのアイコン素材 3" transform="translate(951.41 8841.332)">
      <path id="パス_1716" data-name="パス 1716" d="M164,73.438H132.326a1.353,1.353,0,0,0-1.353,1.353v48.82h0v.023H144.1V114.4h8.117v9.23h13.129V74.791A1.352,1.352,0,0,0,164,73.438Zm-5.325,6.084v3.955h-4.949V79.522h4.949Zm0,8.214v4.028h-4.949V87.736Zm0,8.287v4.034h-4.949V96.023Zm0,8.293v4.034h-4.949v-4.034Zm-8.249-24.793v3.955h-4.949V79.522h4.949Zm-4.949,12.242V87.736h4.949v4.028Zm0,8.293V96.023h4.949v4.034Zm0,8.293v-4.034h4.949v4.034Zm-3.3-28.827v3.955h-4.949V79.522h4.949Zm0,8.214v4.028h-4.949V87.736Zm0,8.287v4.034h-4.949V96.023Zm0,8.293v4.034h-4.949v-4.034Z" transform="translate(-112.967 -73.438)" fill="#fff"/>
      <path id="パス_1717" data-name="パス 1717" d="M0,129.494v41.3H0v.023H14.006v-13H4.138v-3.426h9.869v-3.62H4.138v-3.432h9.869v-3.621H4.138V140.3h9.869v-3.62H4.138v-3.359h9.869v-5.177H1.353A1.353,1.353,0,0,0,0,129.494Z" transform="translate(0 -120.621)" fill="#fff"/>
      <path id="パス_1718" data-name="パス 1718" d="M422.774,128.141H410.121V133.3h0v.022h9.869v3.359h-9.869v3.6h0v.022h9.869v3.425h-9.869v3.6h0v.022h9.869v3.432h-9.869v3.6h0v.022h9.869v3.426h-9.869v12.974h0v.023h14.006V129.494A1.352,1.352,0,0,0,422.774,128.141Z" transform="translate(-353.74 -120.621)" fill="#fff"/>
    </g>
  </g>
</svg>
