<svg xmlns="http://www.w3.org/2000/svg" width="127" height="127" viewBox="0 0 127 127">
  <g id="グループ_3376" data-name="グループ 3376" transform="translate(-473 -8802.93)">
    <g id="楕円形_88" data-name="楕円形 88" transform="translate(473 8802.93)" fill="#5cadd3" stroke="#5cadd3" stroke-width="10">
      <circle cx="63.5" cy="63.5" r="63.5" stroke="none"/>
      <circle cx="63.5" cy="63.5" r="58.5" fill="none"/>
    </g>
    <path id="ifn1022" d="M1719.172,300.052a3.226,3.226,0,0,0-3.131,3.224,2.952,2.952,0,0,0,.042.417h-4.1a1.978,1.978,0,0,0-1.934,1.581,1.911,1.911,0,0,0-.041.4,1.978,1.978,0,0,0,1.974,1.972h14.563a1.976,1.976,0,1,0,0-3.952h-4.1a2.989,2.989,0,0,0,.042-.417,3.226,3.226,0,0,0-3.319-3.224Zm-16.706,5.217a3.2,3.2,0,0,0-3.2,3.2v44a3.2,3.2,0,0,0,3.2,3.2h33.6a3.2,3.2,0,0,0,3.2-3.2v-44a3.2,3.2,0,0,0-3.2-3.2h-5.089c.012.133.041.262.041.4a4.477,4.477,0,0,1-4.474,4.474h-14.561a4.477,4.477,0,0,1-4.472-4.474,3.983,3.983,0,0,1,.041-.4Zm1.375,9.449H1734.7a.8.8,0,0,1,.8.8l0,35.845a.8.8,0,0,1-.8.8h-30.852a.8.8,0,0,1-.8-.8V315.518a.8.8,0,0,1,.8-.8Zm25.062,9.891a2.5,2.5,0,0,0-1.691.744v0l-9.538,9.538-6.17-6.39a2.5,2.5,0,1,0-3.593,3.47l9.7,10.046,13.132-13.132a2.5,2.5,0,0,0-1.84-4.276Z" transform="translate(-1182.467 8538.571)" fill="#fff"/>
  </g>
</svg>
