<svg xmlns="http://www.w3.org/2000/svg" xmlns:xlink="http://www.w3.org/1999/xlink" width="880" height="207.329" viewBox="0 0 880 207.329">
  <defs>
    <clipPath id="clip-path">
      <rect id="長方形_1418" data-name="長方形 1418" width="66.931" height="126.275" fill="#bcbcbc" stroke="#fff" stroke-width="1"/>
    </clipPath>
    <clipPath id="clip-path-2">
      <rect id="長方形_1419" data-name="長方形 1419" width="48.967" height="126.275" fill="#5cadd3" stroke="#fff" stroke-width="1"/>
    </clipPath>
    <clipPath id="clip-path-3">
      <rect id="長方形_1420" data-name="長方形 1420" width="83.806" height="83.216" fill="#bcbcbc" stroke="#fff" stroke-width="1"/>
    </clipPath>
    <clipPath id="clip-path-4">
      <rect id="長方形_1420-2" data-name="長方形 1420" width="83.806" height="83.216" fill="#5cadd3" stroke="#fff" stroke-width="1"/>
    </clipPath>
    <clipPath id="clip-path-5">
      <rect id="長方形_1421" data-name="長方形 1421" width="84.644" height="110.116" fill="#5cadd3" stroke="#fff" stroke-width="1"/>
    </clipPath>
    <clipPath id="clip-path-6">
      <rect id="長方形_1422" data-name="長方形 1422" width="20.006" height="42.999" fill="#bcbcbc"/>
    </clipPath>
    <clipPath id="clip-path-7">
      <rect id="長方形_1425" data-name="長方形 1425" width="379" height="10.078" fill="#5cadd3"/>
    </clipPath>
  </defs>
  <g id="グループ_3490" data-name="グループ 3490" transform="translate(-200 -9745.671)">
    <g id="グループ_3310" data-name="グループ 3310" transform="translate(0 1852)">
      <text id="立ち上げ" transform="translate(281 8094)" fill="#004679" font-size="15" font-family="HiraginoSans-W6, Hiragino Sans"><tspan x="-30" y="0">立ち上げ</tspan></text>
      <text id="解決策の実行" transform="translate(795 8094)" fill="#004679" font-size="15" font-family="HiraginoSans-W6, Hiragino Sans"><tspan x="-45" y="0">解決策の実行</tspan></text>
      <text id="_0" data-name="0" transform="translate(281 8073)" fill="#5cadd3" font-size="15" font-family="Montserrat-Bold, Montserrat" font-weight="700"><tspan x="-5.093" y="0">0</tspan></text>
      <text id="_09" data-name="09" transform="translate(795 8073)" fill="#5cadd3" font-size="15" font-family="Montserrat-Bold, Montserrat" font-weight="700"><tspan x="-9.87" y="0">09</tspan></text>
      <path id="合体_12" data-name="合体 12" d="M2961.157,0,3009,55.04,2961.157,119ZM2129,88V31h832.157V88Z" transform="translate(-1929 7951.329)" fill="#ebeff3"/>
      <g id="グループ_3026" data-name="グループ 3026" transform="translate(280.931 7893.671)">
        <g id="グループ_3024" data-name="グループ 3024" transform="translate(0 0)" clip-path="url(#clip-path)">
          <path id="パス_1005" data-name="パス 1005" d="M31.639,25.109A12.554,12.554,0,1,1,44.193,12.555,12.554,12.554,0,0,1,31.639,25.109" transform="translate(3.653 0)" fill="#bcbcbc" stroke="#fff" stroke-width="1"/>
          <path id="パス_1006" data-name="パス 1006" d="M2.091,56.941l16.1-9.508,8.665-13.995a9.819,9.819,0,0,1,1.114-1.8l.064-.1a4.216,4.216,0,0,1,1.279-1.3,9.9,9.9,0,0,1,13.8.856,4.219,4.219,0,0,1,1.741,1.548L55.371,49.352c.049.077.077.161.12.241a4.044,4.044,0,0,1,.207.417,4.093,4.093,0,0,1,.141.431c.026.089.066.171.086.264l4.229,19.288a4.252,4.252,0,1,1-8.307,1.821L47.778,53.25l-3.951-6.281c-1.283,7.2-1.028,13.307.817,16.975a9.911,9.911,0,0,1,.777,2.148l.022-.005S47.647,76,47.8,76.65l4.9,20.785,13.05,16.9a5.669,5.669,0,1,1-8.975,6.929l-13.8-17.874c-.037-.048-.059-.1-.1-.151a5.5,5.5,0,0,1-.382-.615c-.059-.108-.122-.214-.174-.325a5.774,5.774,0,0,1-.236-.634c-.04-.124-.09-.245-.122-.37,0-.024-.016-.045-.022-.068L37.924,84.175l-2.449-.117-9.908,16.99L21.077,121.8a5.669,5.669,0,1,1-11.082-2.4l4.775-22.07c.222-1.026,12.075-20.988,12.075-20.988l.008-.012S23.1,60.171,23.185,54.36l-16.77,9.9a4.252,4.252,0,0,1-4.324-7.322" transform="translate(-0.001 0)" fill="#bcbcbc" stroke="#fff" stroke-width="1"/>
        </g>
      </g>
      <g id="グループ_3028" data-name="グループ 3028" transform="translate(231.964 7893.671)">
        <g id="グループ_3027" data-name="グループ 3027" clip-path="url(#clip-path-2)">
          <path id="パス_1007" data-name="パス 1007" d="M22.1,24.558A12.278,12.278,0,1,0,9.824,12.279,12.279,12.279,0,0,0,22.1,24.558" transform="translate(-0.216 0)" fill="#5cadd3" stroke="#fff" stroke-width="1"/>
          <path id="パス_1008" data-name="パス 1008" d="M48.2,65.984,37.262,50.6,29.783,33.274A4.114,4.114,0,0,0,29,32.106a9.689,9.689,0,0,0-8.992-4.227c-4.61.452-6.971,4.054-8.68,8.477L5.475,50.72c-.03.076-.041.155-.067.232s-.067.146-.088.226L.153,69.786a4.159,4.159,0,1,0,8.014,2.226l4.157-14.971C12.273,61.432,10.837,76,11.012,76.8L8.479,96.266l-7.135,22.3a5.545,5.545,0,1,0,10.563,3.379L19.18,99.21l0-.014.009-.028a5.638,5.638,0,0,0,.2-.913c0-.022.011-.04.014-.062l1.707-13.117,5.963,16.3,4.829,21.192a5.545,5.545,0,0,0,10.812-2.464L37.816,98.576c0-.021-.012-.04-.017-.062-.022-.088-.049-.177-.075-.265s-.057-.2-.09-.292c-.007-.018-.011-.036-.017-.054L30.169,77.54c.2-.685.789-9.458.789-9.458s.716-6.569.767-10.916L41.418,70.8a4.159,4.159,0,0,0,6.78-4.819" transform="translate(0 -0.611)" fill="#5cadd3" stroke="#fff" stroke-width="1"/>
        </g>
      </g>
      <g id="グループ_3030" data-name="グループ 3030" transform="translate(753 7919.646)">
        <g id="グループ_3029" data-name="グループ 3029" clip-path="url(#clip-path-3)">
          <path id="パス_1009" data-name="パス 1009" d="M73.959,19.263A10.724,10.724,0,1,0,71.905,4.238a10.724,10.724,0,0,0,2.053,15.026" transform="translate(-10.167 0)" fill="#bcbcbc" stroke="#fff" stroke-width="1"/>
          <path id="パス_1010" data-name="パス 1010" d="M81.674,43.807a3.507,3.507,0,0,0,.165-.343c.043-.1.085-.194.118-.295s.062-.226.089-.343.051-.224.066-.338c0-.035.017-.067.021-.1L83.788,25.6a3.632,3.632,0,0,0-7.229-.713l-.936,9.483s-8.872-9.3-10.066-10.213c-2.033-1.553-24.144-5.386-24.144-5.386s-.026,0-.039,0-.024-.009-.037-.011c-.11-.02-.217-.018-.326-.029a3.576,3.576,0,0,0-.367-.033c-.124,0-.243.021-.364.032s-.231.016-.344.038a3.592,3.592,0,0,0-.354.1,3.3,3.3,0,0,0-.315.1,3.349,3.349,0,0,0-.325.168c-.1.052-.2.1-.29.158s-.187.146-.28.22-.181.138-.262.217-.154.176-.229.266-.156.174-.223.272-.117.205-.174.308a3.4,3.4,0,0,0-.169.316c-.047.11-.076.231-.113.347s-.078.206-.1.317c0,.013,0,.026-.005.039s-.009.024-.01.037L33.884,38.2a3.633,3.633,0,0,0,2.878,4.255,3.7,3.7,0,0,0,.693.067,3.606,3.606,0,0,0,1.7-.431c-.445.349-.811.606-1.109.794A8.49,8.49,0,0,0,36.7,43.932l-.027-.029-4.607,4.416c-.915.876-16.311,16.153-16.311,16.153L1.562,77.537a4.843,4.843,0,1,0,6.561,7.125L22.311,71.6,33.987,60.845,47.7,63.233l-5.721,5.149a4.843,4.843,0,0,0,6.48,7.2l14.336-12.9c.013-.012.022-.026.035-.038a4.981,4.981,0,0,0,.5-.548c.041-.052.094-.1.132-.15a4.746,4.746,0,0,0,.472-.794c.051-.109.08-.226.123-.338a3.021,3.021,0,0,0,.277-1.089c.016-.12.049-.234.056-.357v-.02c0-.013,0-.026,0-.038a4.858,4.858,0,0,0-.038-.888l0-.017a4.829,4.829,0,0,0-.21-.876c-.005-.014-.008-.028-.013-.042a4.878,4.878,0,0,0-.381-.828c-.007-.011-.012-.022-.019-.033a4.823,4.823,0,0,0-.567-.775l-.006-.009c-.005-.006-.012-.009-.018-.015a4.825,4.825,0,0,0-.688-.625l-.067-.046a4.781,4.781,0,0,0-.747-.444c-.025-.012-.05-.021-.076-.032a4.829,4.829,0,0,0-.811-.288c-.022-.005-.044-.009-.067-.015a4.883,4.883,0,0,0-.843-.128l-8.259-.485c4.231-3.756,9.247-9.464,15.4-17.507l9.059,8.437c.026.025.057.041.084.064a3.4,3.4,0,0,0,.279.214c.1.069.19.139.29.2s.19.1.288.144a3.461,3.461,0,0,0,.35.148c.095.033.192.057.29.082a3.539,3.539,0,0,0,.4.081c.046.006.089.023.137.027.121.012.241.018.36.018a3.623,3.623,0,0,0,.7-.072c.054-.01.105-.032.158-.045a3.576,3.576,0,0,0,.508-.158c.079-.032.154-.078.231-.115a3.874,3.874,0,0,0,.387-.214c.078-.052.151-.112.226-.17a3.608,3.608,0,0,0,.334-.291c.033-.033.073-.056.105-.091s.059-.082.092-.121a3.667,3.667,0,0,0,.246-.324c.056-.084.112-.167.161-.253M41.016,39.574,43.51,26.657,51.621,28.4c-5.5,7-9.082,10.736-11.328,12.725a3.6,3.6,0,0,0,.723-1.555" transform="translate(0 -2.726)" fill="#bcbcbc" stroke="#fff" stroke-width="1"/>
        </g>
      </g>
      <g id="グループ_3031" data-name="グループ 3031" transform="translate(782.945 7936.73)">
        <g id="グループ_3029-2" data-name="グループ 3029" clip-path="url(#clip-path-4)">
          <path id="パス_1009-2" data-name="パス 1009" d="M73.959,19.263A10.724,10.724,0,1,0,71.905,4.238a10.724,10.724,0,0,0,2.053,15.026" transform="translate(-10.167 0)" fill="#5cadd3" stroke="#fff" stroke-width="1"/>
          <path id="パス_1010-2" data-name="パス 1010" d="M81.674,43.807a3.507,3.507,0,0,0,.165-.343c.043-.1.085-.194.118-.295s.062-.226.089-.343.051-.224.066-.338c0-.035.017-.067.021-.1L83.788,25.6a3.632,3.632,0,0,0-7.229-.713l-.936,9.483s-8.872-9.3-10.066-10.213c-2.033-1.553-24.144-5.386-24.144-5.386s-.026,0-.039,0-.024-.009-.037-.011c-.11-.02-.217-.018-.326-.029a3.576,3.576,0,0,0-.367-.033c-.124,0-.243.021-.364.032s-.231.016-.344.038a3.592,3.592,0,0,0-.354.1,3.3,3.3,0,0,0-.315.1,3.349,3.349,0,0,0-.325.168c-.1.052-.2.1-.29.158s-.187.146-.28.22-.181.138-.262.217-.154.176-.229.266-.156.174-.223.272-.117.205-.174.308a3.4,3.4,0,0,0-.169.316c-.047.11-.076.231-.113.347s-.078.206-.1.317c0,.013,0,.026-.005.039s-.009.024-.01.037L33.884,38.2a3.633,3.633,0,0,0,2.878,4.255,3.7,3.7,0,0,0,.693.067,3.606,3.606,0,0,0,1.7-.431c-.445.349-.811.606-1.109.794A8.49,8.49,0,0,0,36.7,43.932l-.027-.029-4.607,4.416c-.915.876-16.311,16.153-16.311,16.153L1.562,77.537a4.843,4.843,0,1,0,6.561,7.125L22.311,71.6,33.987,60.845,47.7,63.233l-5.721,5.149a4.843,4.843,0,0,0,6.48,7.2l14.336-12.9c.013-.012.022-.026.035-.038a4.981,4.981,0,0,0,.5-.548c.041-.052.094-.1.132-.15a4.746,4.746,0,0,0,.472-.794c.051-.109.08-.226.123-.338a3.021,3.021,0,0,0,.277-1.089c.016-.12.049-.234.056-.357v-.02c0-.013,0-.026,0-.038a4.858,4.858,0,0,0-.038-.888l0-.017a4.829,4.829,0,0,0-.21-.876c-.005-.014-.008-.028-.013-.042a4.878,4.878,0,0,0-.381-.828c-.007-.011-.012-.022-.019-.033a4.823,4.823,0,0,0-.567-.775l-.006-.009c-.005-.006-.012-.009-.018-.015a4.825,4.825,0,0,0-.688-.625l-.067-.046a4.781,4.781,0,0,0-.747-.444c-.025-.012-.05-.021-.076-.032a4.829,4.829,0,0,0-.811-.288c-.022-.005-.044-.009-.067-.015a4.883,4.883,0,0,0-.843-.128l-8.259-.485c4.231-3.756,9.247-9.464,15.4-17.507l9.059,8.437c.026.025.057.041.084.064a3.4,3.4,0,0,0,.279.214c.1.069.19.139.29.2s.19.1.288.144a3.461,3.461,0,0,0,.35.148c.095.033.192.057.29.082a3.539,3.539,0,0,0,.4.081c.046.006.089.023.137.027.121.012.241.018.36.018a3.623,3.623,0,0,0,.7-.072c.054-.01.105-.032.158-.045a3.576,3.576,0,0,0,.508-.158c.079-.032.154-.078.231-.115a3.874,3.874,0,0,0,.387-.214c.078-.052.151-.112.226-.17a3.608,3.608,0,0,0,.334-.291c.033-.033.073-.056.105-.091s.059-.082.092-.121a3.667,3.667,0,0,0,.246-.324c.056-.084.112-.167.161-.253M41.016,39.574,43.51,26.657,51.621,28.4c-5.5,7-9.082,10.736-11.328,12.725a3.6,3.6,0,0,0,.723-1.555" transform="translate(0 -2.726)" fill="#5cadd3" stroke="#fff" stroke-width="1"/>
        </g>
      </g>
      <g id="グループ_3033" data-name="グループ 3033" transform="translate(967.338 7909.83)">
        <g id="グループ_3032" data-name="グループ 3032" transform="translate(0 0)" clip-path="url(#clip-path-5)">
          <path id="パス_1011" data-name="パス 1011" d="M55.377,22.8A11.6,11.6,0,1,0,47.2,8.58,11.6,11.6,0,0,0,55.377,22.8" transform="translate(-3.556 0)" fill="#5cadd3" stroke="#fff" stroke-width="1"/>
          <path id="パス_1012" data-name="パス 1012" d="M84.578,44.435A3.929,3.929,0,0,0,80,41.293L65.011,44.085s-3.777-8.9-4.732-11.346c-.934-2.391-4.146-6.21-8-6.869-2.831-.483-6.306.746-8.1,1.623S29.3,35.56,29.3,35.56c-.086.043-.157.1-.238.148a4.156,4.156,0,0,0-.39.243c-.1.076-.188.164-.28.249a3.878,3.878,0,0,0-.284.268,3.726,3.726,0,0,0-.243.322c-.071.1-.148.189-.211.295a4.033,4.033,0,0,0-.2.428c-.036.082-.085.155-.116.241L21.146,54.918a3.929,3.929,0,1,0,7.392,2.666l5.649-15.669,6.539-3.207a78.08,78.08,0,0,1-8.784,23.93c-.36.633-10.639,18.335-10.639,18.335L3.446,87.487A5.238,5.238,0,1,0,7.035,97.33l19.6-7.149c.029-.01.055-.024.082-.035.064-.024.125-.052.187-.079.129-.055.256-.115.38-.18.06-.031.12-.064.179-.1q.2-.118.391-.25c.04-.028.081-.054.121-.083a5.334,5.334,0,0,0,.468-.393c.03-.03.058-.062.089-.091.119-.118.231-.242.338-.371q.057-.068.111-.139a5.193,5.193,0,0,0,.314-.452c.012-.019.027-.036.039-.056l7.855-13.1L52.345,88.5l1.552,18.77a5.239,5.239,0,0,0,5.214,4.807c.145,0,.291-.006.438-.018a5.238,5.238,0,0,0,4.789-5.652L62.619,85.609a5.323,5.323,0,0,0-.109-.694l-.03-.128a5.2,5.2,0,0,0-.284-.841c-.016-.038-.034-.075-.052-.113a5.222,5.222,0,0,0-.448-.782c-.024-.035-.049-.068-.075-.1a5.182,5.182,0,0,0-.613-.7c-.016-.015-.026-.033-.043-.048L48.756,70.85s6.7-13.351,8.973-23.775l1.512,3.131c.03.061.067.115.1.174.042.075.081.149.128.221a4.033,4.033,0,0,0,.249.345c.04.05.077.1.119.151a3.886,3.886,0,0,0,.95.784c.055.032.115.059.172.09a3.8,3.8,0,0,0,.379.176c.072.029.146.055.22.079a3.9,3.9,0,0,0,.386.1c.073.016.144.034.218.046a4,4,0,0,0,.587.052l.027,0h.007c.012,0,.024,0,.036,0a3.9,3.9,0,0,0,.681-.063l17.937-3.343a3.93,3.93,0,0,0,3.143-4.582" transform="translate(0 -1.957)" fill="#5cadd3" stroke="#fff" stroke-width="1"/>
        </g>
      </g>
      <g id="グループ_3035" data-name="グループ 3035" transform="translate(957.335 7943.389)">
        <g id="グループ_3034" data-name="グループ 3034" clip-path="url(#clip-path-6)">
          <path id="パス_1013" data-name="パス 1013" d="M25.535,9.234A4.184,4.184,0,1,0,21.351,5.05a4.184,4.184,0,0,0,4.184,4.184" transform="translate(-14.235 -0.577)" fill="#bcbcbc"/>
          <path id="パス_1014" data-name="パス 1014" d="M19.986,24.409l-1.079-6.492c0-.011-.007-.021-.009-.032a1.391,1.391,0,0,0-.038-.139,1.3,1.3,0,0,0-.046-.14c0-.01-.005-.021-.01-.031s-1.729-3.912-2.449-5.522-2.4-2.559-5.059-2.559a7.634,7.634,0,0,0-3.536.793L5.195,7.06c-.007-.02-.009-.04-.017-.059L2.733.891A1.417,1.417,0,1,0,.1,1.944l2.445,6.11c.017.043.04.082.06.122a1.412,1.412,0,0,0,.257.506l4.1,5.151c.027.034.061.059.09.09,0,.029,0,.057,0,.086,0,0,.075,11.781.081,11.858a1.888,1.888,0,0,0-.01.19V41.109a1.89,1.89,0,1,0,3.779,0V28.562h.8V41.109a1.889,1.889,0,1,0,3.779,0V33.584l.072-16.362.594,1.338,1.05,6.315a1.417,1.417,0,0,0,1.4,1.184,1.436,1.436,0,0,0,.234-.019,1.417,1.417,0,0,0,1.165-1.63" transform="translate(0 0)" fill="#bcbcbc"/>
        </g>
      </g>
      <g id="グループ_3037" data-name="グループ 3037" transform="translate(342 8076.745)">
        <g id="グループ_3036" data-name="グループ 3036" transform="translate(0 0)" clip-path="url(#clip-path-7)">
          <line id="線_124" data-name="線 124" x1="370.246" transform="translate(0 5.039)" fill="none"/>
          <path id="パス_1016" data-name="パス 1016" d="M12.4,5.039A50.236,50.236,0,0,0,0,10.078l2.5-5.04L0,0A50.194,50.194,0,0,0,12.4,5.039" transform="translate(366.602 0)" fill="#5cadd3"/>
        </g>
      </g>
      <g id="グループ_3039" data-name="グループ 3039" transform="translate(560.5 8076.745)">
        <g id="グループ_3036-2" data-name="グループ 3036" transform="translate(0 0)" clip-path="url(#clip-path-7)">
          <line id="線_124-2" data-name="線 124" x1="370.246" transform="translate(0 5.039)" fill="none"/>
          <path id="パス_1016-2" data-name="パス 1016" d="M12.4,5.039A50.236,50.236,0,0,0,0,10.078l2.5-5.04L0,0A50.194,50.194,0,0,0,12.4,5.039" transform="translate(366.602 0)" fill="#5cadd3"/>
        </g>
      </g>
      <rect id="長方形_1426" data-name="長方形 1426" width="110" height="37" rx="5" transform="translate(957 8064)" fill="#5cadd3"/>
      <text id="自走可能" transform="translate(1012 8091)" fill="#fff" font-size="20" font-family="HiraginoSans-W6, Hiragino Sans"><tspan x="-40" y="0">自走可能</tspan></text>
    </g>
    <line id="線_350" data-name="線 350" x1="71" transform="translate(858.5 9933.5)" fill="none" stroke="#5cadd3" stroke-width="1"/>
    <line id="線_351" data-name="線 351" x1="368" transform="translate(347.5 9933.5)" fill="none" stroke="#5cadd3" stroke-width="1"/>
  </g>
</svg>
